<?xml version="1.0" standalone="no"?>
<!DOCTYPE svg PUBLIC "-//W3C//DTD SVG 1.1//EN" "http://www.w3.org/Graphics/SVG/1.1/DTD/svg11.dtd" >
<svg xmlns="http://www.w3.org/2000/svg">
<defs>
<font id="Gotham-Bold" horiz-adv-x="1024" >
<font-face  font-family="Gotham" font-weight="700" font-stretch="normal" units-per-em="2048" panose-1="2 0 8 4 4 0 0 2 0 4" ascent="1638" descent="-410" x-height="1098" cap-height="1434" bbox="-145 -354 2447 1909" underline-thickness="40" underline-position="-252" unicode-range="U+0020-U+FB02"/>
<missing-glyph horiz-adv-x="614" />
<glyph glyph-name=".notdef" horiz-adv-x="614" />
<glyph glyph-name=".null" horiz-adv-x="0" />
<glyph glyph-name="nonmarkingreturn" horiz-adv-x="682" />
<glyph glyph-name="space" unicode=" "  horiz-adv-x="614" />
<glyph glyph-bame="tab" unicode="&#x09;" horiz-adv-x="614" />
<glyph glyph-bame="uni00A0" unicode="&#xa0;" horiz-adv-x="614" />
<glyph glyph-name="exclam" unicode="!" horiz-adv-x="663" d="M150 1434v-41l96 -906h172l96 906v41h-364zM498 0v328h-332v-328h332z" />
<glyph glyph-name="quotedbl" unicode="&#x22;" horiz-adv-x="1064" d="M600 780h158l223 643v11h-344zM117 780h157l224 643v11h-344z" />
<glyph glyph-name="numbersign" unicode="#" horiz-adv-x="1433" d="M1362 872v263h-156l51 299h-270l-51 -299h-297l51 299h-270l-51 -299h-226v-263h181l-52 -303h-200v-262h155l-53 -307h270l54 307h297l-54 -307h271l53 307h225v262h-180l51 303h201zM891 872l-51 -303h-297l51 303h297z" />
<glyph glyph-name="dollar" unicode="$" horiz-adv-x="1323" d="M1221 408q0 172 -105.5 275t-339.5 167v309q66 -16 129.5 -48t124.5 -73l137 240q-84 59 -177 97t-204 55v122h-213v-118q-96 -10 -176 -42t-136 -84.5t-87 -122t-31 -155.5q0 -90 28 -158.5t82 -120t137 -89t194 -68.5v-326q-92 18 -171 60.5t-163 105.5l-160 -233 q102 -78 226 -128t257 -67v-207h213v203q98 10 178 43t136.5 85t88.5 122t32 156zM584 901q-84 31 -113 65.5t-29 82.5q0 49 34 83.5t108 45.5v-277zM922 391q0 -111 -146 -133v287q84 -31 115 -66t31 -88z" />
<glyph glyph-name="percent" unicode="%" horiz-adv-x="1761" d="M788 1085q0 76 -24.5 142.5t-70.5 116t-109.5 78t-141.5 28.5t-142 -28.5t-110.5 -79t-72 -118t-25.5 -143.5t24.5 -142.5t70.5 -115.5t109.5 -77.5t141.5 -28.5t142.5 28.5t110.5 78.5t71.5 116.5t25.5 144.5zM1526 1434h-244l-1046 -1434h243zM1669 352 q0 76 -24.5 142.5t-70.5 115.5t-109.5 78t-141.5 29t-142.5 -29t-110.5 -79t-71.5 -117.5t-25.5 -143.5t24.5 -142.5t70.5 -115.5t109.5 -77.5t141.5 -28.5t142.5 28.5t110.5 78.5t71.5 116.5t25.5 144.5zM573 1081q0 -72 -32.5 -125t-98.5 -53q-61 0 -98 54.5t-37 127.5 q0 72 33 125.5t98 53.5q61 0 98 -54.5t37 -128.5zM1454 348q0 -72 -32.5 -125t-98.5 -53q-61 0 -98 54.5t-37 127.5q0 72 32.5 125t98.5 53q61 0 98 -54t37 -128z" />
<glyph glyph-name="ampersand" unicode="&#x26;" horiz-adv-x="1425" d="M1368 133l-211 211q53 72 100.5 149.5t88.5 153.5l-232 127l-70 -128l-69 -118l-191 191q133 51 217 141t84 236q0 76 -28.5 142.5t-81.5 115.5t-127 76.5t-166 27.5q-104 0 -185 -31.5t-136.5 -84t-84 -121t-28.5 -142.5q0 -76 23.5 -144.5t76.5 -143.5 q-135 -61 -206.5 -158.5t-71.5 -237.5q0 -96 36.5 -173t101 -131t153 -82.5t190.5 -28.5q125 0 228.5 44t191.5 115l166 -168zM811 1077q0 -70 -48 -113.5t-142 -78.5q-45 51 -64.5 91t-19.5 89q0 66 37.5 106.5t101.5 40.5q59 0 97 -34.5t38 -100.5zM795 319 q-49 -39 -101.5 -60t-105.5 -21q-88 0 -144.5 46t-56.5 124q0 53 31 103t102 87z" />
<glyph glyph-name="quotesingle" unicode="'" horiz-adv-x="585" d="M117 780h162l223 643v11h-348z" />
<glyph glyph-name="parenleft" unicode="(" horiz-adv-x="911" d="M825 1257l-137 207q-285 -154 -426 -366.5t-141 -509.5t141 -510t426 -367l137 207q-104 72 -179 145.5t-123 153.5t-70.5 171t-22.5 200t22.5 200t70.5 170.5t123 153t179 145.5z" />
<glyph glyph-name="parenright" unicode=")" horiz-adv-x="911" d="M791 588q0 297 -141.5 510t-426.5 366l-137 -207q104 -72 179 -145.5t123 -153t70.5 -171t22.5 -199.5q0 -109 -22.5 -200t-70.5 -171t-123 -153.5t-179 -145.5l137 -207q285 154 426.5 367t141.5 510z" />
<glyph glyph-name="asterisk" unicode="*" horiz-adv-x="880" d="M776 1004l-229 96l229 96l-86 147l-198 -151l32 246h-168l33 -246l-199 151l-86 -147l230 -96l-230 -96l86 -148l199 152l-33 -246h168l-32 246l198 -152z" />
<glyph glyph-name="plus" unicode="+" horiz-adv-x="1310" d="M510 862h-371v-282h371v-369h291v369h370v282h-370v369h-291v-369z" />
<glyph glyph-name="comma" unicode="," horiz-adv-x="585" d="M53 -203l27 -129q182 2 280.5 91t98.5 292v277h-332v-328h127q16 -180 -201 -203z" />
<glyph glyph-name="hyphen" unicode="-" horiz-adv-x="835" d="M733 485v299h-631v-299h631z" />
<glyph glyph-name="period" unicode="." horiz-adv-x="585" d="M459 0v328h-332v-328h332z" />
<glyph glyph-name="slash" unicode="/" horiz-adv-x="1085" d="M850 1634l-907 -1896h264l907 1896h-264z" />
<glyph glyph-name="zero" unicode="0" horiz-adv-x="1495" d="M1384 719q0 156 -45 291t-128 235.5t-200.5 156.5t-260.5 56t-261 -57.5t-202 -157.5t-130 -236.5t-46 -291.5q0 -158 45 -292t128 -234.5t200.5 -157t260.5 -56.5t261 57.5t202 158t130 235.5t46 293zM1061 715q0 -98 -21.5 -181t-62.5 -144.5t-98.5 -95.5t-128.5 -34 q-72 0 -130.5 35t-99.5 96.5t-63.5 145.5t-22.5 182t21.5 182t62.5 144.5t98.5 94.5t128.5 34q72 0 130.5 -35t99.5 -96.5t63.5 -145.5t22.5 -182z" />
<glyph glyph-name="one" unicode="1" horiz-adv-x="864" d="M49 1321l66 -258l250 61v-1124h311v1444h-215z" />
<glyph glyph-name="two" unicode="2" horiz-adv-x="1275" d="M633 1171q86 0 139 -47t53 -139q0 -45 -13 -83t-43 -78t-77 -84t-114 -99l-478 -391v-250h1061v272h-624l233 181q94 74 166 136t118 125.5t69.5 134.5t23.5 161q0 100 -34 182t-98.5 140.5t-155.5 90t-206 31.5q-96 0 -171.5 -19.5t-138 -57.5t-117 -93t-107.5 -127 l221 -178q80 98 144.5 145t148.5 47z" />
<glyph glyph-name="three" unicode="3" horiz-adv-x="1271" d="M725 1163l-342 -344l49 -201h131q135 0 208 -47t73 -137q0 -82 -56.5 -129t-146.5 -47q-111 0 -191.5 44t-154.5 128l-217 -207q92 -111 228 -179.5t331 -68.5q119 0 215 35t162.5 98.5t102.5 149.5t36 188q0 100 -33 171t-86 119t-122.5 75t-143.5 39l362 346v238h-968 v-271h563z" />
<glyph glyph-name="four" unicode="4" horiz-adv-x="1411" d="M850 1444l-787 -912l52 -223h700v-309h301v309h193v256h-193v879h-266zM815 565h-381l381 447v-447z" />
<glyph glyph-name="five" unicode="5" horiz-adv-x="1290" d="M184 727l183 -121q51 23 111.5 38t127.5 15q117 0 185.5 -51t68.5 -145q0 -98 -64.5 -149.5t-174.5 -51.5q-96 0 -178.5 41t-163.5 115l-191 -228q104 -100 233.5 -157.5t303.5 -57.5q123 0 224 35t172 99.5t109.5 156.5t38.5 207q0 123 -38.5 210t-106.5 142.5t-159 82 t-197 26.5q-59 0 -102.5 -7t-86.5 -18l17 248h610v277h-881z" />
<glyph glyph-name="six" unicode="6" horiz-adv-x="1355" d="M1188 1300q-47 37 -96.5 67t-102.5 50.5t-114.5 30.5t-135.5 10q-160 0 -278.5 -60.5t-196.5 -166t-115.5 -248.5t-37.5 -309q0 -215 46 -341t124 -204q76 -76 174 -115t239 -39q117 0 217.5 36t173 102.5t114.5 157.5t42 202q0 113 -39 199t-106.5 143t-159.5 87 t-199 30q-106 0 -174.5 -29t-122.5 -63q8 70 28.5 131t56.5 105t86.5 69.5t117.5 25.5q45 0 84 -8t74 -22.5t67.5 -36t67.5 -47.5zM928 459q0 -94 -64.5 -153.5t-181.5 -59.5t-183.5 60.5t-66.5 154.5q0 92 64.5 150.5t181.5 58.5t183.5 -59.5t66.5 -151.5z" />
<glyph glyph-name="seven" unicode="7" horiz-adv-x="1267" d="M139 1161h674l-641 -1161h356l643 1196v238h-1032v-273z" />
<glyph glyph-name="eight" unicode="8" horiz-adv-x="1290" d="M1198 403q0 129 -60.5 206t-170.5 134q84 51 133 125t49 191q0 82 -36 154.5t-102.5 126t-159.5 84t-206 30.5q-115 0 -207 -30.5t-158.5 -84t-102.5 -126t-36 -154.5q0 -117 49.5 -190.5t133.5 -125.5q-115 -53 -173.5 -134t-58.5 -214q0 -94 42 -171t116 -131 t175 -83.5t220 -29.5t220.5 28.5t175 82.5t115.5 133t42 179zM850 1024q0 -78 -55.5 -127t-149.5 -49t-149.5 50t-55.5 128q0 68 53.5 118t151.5 50t151.5 -51t53.5 -119zM893 420q0 -78 -65.5 -129t-182.5 -51t-182.5 51t-65.5 129q0 86 70 132t178 46q109 0 178.5 -46 t69.5 -132z" />
<glyph glyph-name="nine" unicode="9" horiz-adv-x="1355" d="M1245 760q0 106 -12 190t-34.5 149.5t-53.5 115t-70 88.5q-41 41 -84 70.5t-92 48t-107.5 27.5t-129.5 9q-121 0 -222.5 -38t-173 -105.5t-111.5 -159.5t-40 -201q0 -111 35.5 -196.5t103.5 -145t162 -91.5t211 -32q94 0 165.5 27t125.5 72q-16 -145 -87 -235.5 t-204 -90.5q-92 0 -164 30t-150 93l-166 -240q92 -76 203 -123t268 -47q154 0 271 57.5t195.5 160t119.5 247t41 320.5zM924 967q0 -94 -64.5 -154.5t-181.5 -60.5t-183.5 59t-66.5 158q0 98 63.5 158.5t180.5 60.5q119 0 185.5 -61.5t66.5 -159.5z" />
<glyph glyph-name="colon" unicode=":" horiz-adv-x="606" d="M469 770v328h-332v-328h332zM469 0v328h-332v-328h332z" />
<glyph glyph-name="semicolon" unicode=";" horiz-adv-x="606" d="M469 770v328h-332v-328h332zM63 -203l27 -129q182 2 280.5 91t98.5 292v277h-332v-328h127q16 -180 -201 -203z" />
<glyph glyph-name="less" unicode="&#x3c;" horiz-adv-x="1310" d="M139 862v-282l991 -435v293l-692 285l692 285v288z" />
<glyph glyph-name="equal" unicode="=" horiz-adv-x="1310" d="M170 1128v-282h971v282h-971zM170 596v-283h971v283h-971z" />
<glyph glyph-name="greater" unicode="&#x3e;" horiz-adv-x="1310" d="M1171 580v282l-991 434v-292l692 -285l-692 -285v-289z" />
<glyph glyph-name="question" unicode="?" horiz-adv-x="1114" d="M367 829l-11 -10l47 -332h209l23 125q84 16 157.5 46t128 79t86 120t31.5 169q0 102 -35.5 182t-101 134.5t-157 82t-201.5 27.5q-168 0 -290 -61.5t-212 -159.5l188 -207q72 72 147 106.5t161 34.5q90 0 139 -37.5t49 -109.5q0 -84 -81.5 -132.5t-276.5 -56.5zM668 0 v328h-332v-328h332z" />
<glyph glyph-name="at" unicode="@" horiz-adv-x="2007" d="M1898 647q0 158 -68.5 304.5t-189 259t-283.5 180t-351 67.5t-352.5 -71.5t-285 -193.5t-190 -285t-69.5 -347t68.5 -346t191.5 -283.5t289.5 -192.5t363.5 -71q160 0 292 41t251 113l-41 65q-117 -68 -232.5 -102.5t-269.5 -34.5q-182 0 -333.5 63.5t-261.5 173 t-171 257t-61 317.5q0 168 61 316.5t170 259t257 175t323 64.5q172 0 320.5 -60.5t256 -161.5t168.5 -233.5t61 -273.5q0 -102 -20 -180t-55 -131t-82 -80t-103 -27q-72 0 -110.5 37t-38.5 92q0 12 1 30t5 34l96 551l-241 39l-23 -109q-43 59 -109.5 99t-173.5 40 q-90 0 -173 -39.5t-146.5 -108.5t-101 -163t-37.5 -203q0 -92 28.5 -164.5t79.5 -124t120 -79t146 -27.5q100 0 175 38t129 85q39 -45 113.5 -84t199.5 -39q84 0 158.5 32t130 96.5t87 160.5t31.5 225zM1190 639q0 -63 -19.5 -116.5t-53.5 -93.5t-78 -62.5t-93 -22.5 q-86 0 -139 51t-53 148q0 61 19.5 114.5t53 91t78.5 60t94 22.5q84 0 137.5 -52t53.5 -140z" />
<glyph glyph-name="A" unicode="A" horiz-adv-x="1617" d="M1569 0l-615 1444h-290l-615 -1444h322l131 322h606l131 -322h330zM995 600h-381l191 465z" />
<glyph glyph-name="B" unicode="B" horiz-adv-x="1478" d="M1391 393v4q0 143 -72 224t-197 129q39 20 73 48.5t59.5 66.5t41 85t15.5 109v4q0 170 -126 270.5t-347 100.5h-666v-1434h682q121 0 220.5 24.5t170 73.5t108.5 123t38 172zM997 1006q0 -80 -61.5 -116t-165.5 -36h-291v303h312q100 0 153 -38t53 -109v-4zM1077 432 q0 -80 -59.5 -118t-163.5 -38h-375v316h365q123 0 178 -42t55 -114v-4z" />
<glyph glyph-name="C" unicode="C" horiz-adv-x="1511" d="M1432 231l-201 203q-84 -78 -169 -123t-208 -45q-92 0 -169 36t-131 97.5t-85 143.5t-31 174v4q0 92 31 173t86 142.5t132 96t167 34.5q109 0 196 -43t171 -118l200 231q-49 49 -106.5 90t-125 69.5t-150.5 45t-183 16.5q-166 0 -303 -58.5t-235.5 -159.5t-153.5 -235.5 t-55 -287.5v-4q0 -154 55 -289t153.5 -234.5t233.5 -157t293 -57.5q104 0 188 17.5t154.5 51.5t130.5 81t115 106z" />
<glyph glyph-name="D" unicode="D" horiz-adv-x="1601" d="M1493 717v4q0 152 -55.5 282t-156.5 226t-241.5 150.5t-308.5 54.5h-559v-1434h559q168 0 308.5 55.5t241.5 151.5t156.5 227t55.5 283zM1163 713q0 -96 -31.5 -174t-88 -135.5t-136.5 -88t-176 -30.5h-244v864h244q96 0 176 -32t136.5 -89t88 -137t31.5 -174v-4z" />
<glyph glyph-name="E" unicode="E" horiz-adv-x="1372" d="M1264 0v281h-779v301h676v280h-676v291h768v281h-1081v-1434h1092z" />
<glyph glyph-name="F" unicode="F" horiz-adv-x="1343" d="M1264 1147v287h-1092v-1434h315v555h684v287h-684v305h777z" />
<glyph glyph-name="G" unicode="G" horiz-adv-x="1605" d="M1475 203v622h-623v-272h317v-205q-121 -86 -297 -86q-96 0 -175 34t-137 95.5t-90 144t-32 181.5v4q0 92 32 173t88 141.5t131 96t161 35.5q61 0 112.5 -10t95.5 -28.5t85 -45t82 -61.5l198 240q-55 47 -114.5 83.5t-127 61.5t-146.5 38t-175 13q-164 0 -301 -58.5 t-237.5 -159.5t-156.5 -235.5t-56 -287.5v-4q0 -160 55 -295t154.5 -233.5t237.5 -154t306 -55.5q197 0 349.5 67t263.5 161z" />
<glyph glyph-name="H" unicode="H" horiz-adv-x="1556" d="M1384 0v1434h-315v-568h-582v568h-315v-1434h315v575h582v-575h315z" />
<glyph glyph-name="I" unicode="I" horiz-adv-x="688" d="M502 0v1434h-316v-1434h316z" />
<glyph glyph-name="J" unicode="J" horiz-adv-x="1155" d="M1006 496v938h-324v-924q0 -125 -51 -181.5t-142 -56.5q-76 0 -138 38t-124 106l-198 -221q74 -88 187.5 -151.5t281.5 -63.5q113 0 207 31.5t160.5 96t103.5 161t37 227.5z" />
<glyph glyph-name="K" unicode="K" horiz-adv-x="1495" d="M1477 0l-611 825l584 609h-381l-582 -627v627h-315v-1434h315v438l166 172l445 -610h379z" />
<glyph glyph-name="L" unicode="L" horiz-adv-x="1267" d="M1202 0v287h-715v1147h-315v-1434h1030z" />
<glyph glyph-name="M" unicode="M" horiz-adv-x="1777" d="M1606 0v1434h-340l-377 -607l-377 607h-340v-1434h309v930l400 -606h8l403 612v-936h314z" />
<glyph glyph-name="N" unicode="N" horiz-adv-x="1617" d="M1446 0v1434h-311v-883l-672 883h-291v-1434h311v911l695 -911h268z" />
<glyph glyph-name="O" unicode="O" horiz-adv-x="1740" d="M1632 717v4q0 154 -56 288t-157.5 233t-241 157.5t-305.5 58.5t-306 -58.5t-241.5 -159.5t-158.5 -235.5t-57 -287.5v-4q0 -154 56 -288t157.5 -233.5t240.5 -158t305 -58.5t306.5 58.5t242 160t158.5 235.5t57 288zM1303 713q0 -92 -32 -173t-88.5 -142.5t-136 -96.5 t-174.5 -35q-96 0 -175 36t-137 97.5t-90 143.5t-32 174v4q0 92 32 173t88 142.5t135 96t175 34.5q94 0 174 -35.5t138.5 -97t90.5 -143.5t32 -174v-4z" />
<glyph glyph-name="P" unicode="P" horiz-adv-x="1368" d="M1307 934v4q0 111 -38 202t-108.5 156.5t-172 101.5t-230.5 36h-586v-1434h315v430h240q121 0 226.5 32t184.5 95.5t124 157.5t45 219zM987 928q0 -92 -65.5 -154.5t-184.5 -62.5h-250v438h244q119 0 187.5 -55.5t68.5 -161.5v-4z" />
<glyph glyph-name="Q" unicode="Q" horiz-adv-x="1740" d="M1653 180l-148 125q61 90 94 194.5t33 217.5v4q0 154 -56 288t-157.5 233t-241 157.5t-305.5 58.5t-306 -58.5t-241.5 -159.5t-158.5 -235.5t-57 -287.5v-4q0 -154 56 -288t157.5 -233.5t240.5 -158t305 -58.5q121 0 227.5 32t198.5 91l158 -141zM1303 713 q0 -111 -39 -197l-236 213l-201 -225l234 -199q-88 -39 -189 -39q-96 0 -175 36t-137 97.5t-90 143.5t-32 174v4q0 92 32 173t88 142.5t135 96t175 34.5q94 0 174 -35.5t138.5 -97t90.5 -143.5t32 -174v-4z" />
<glyph glyph-name="R" unicode="R" horiz-adv-x="1480" d="M1411 0l-350 512q137 51 222 160.5t85 283.5v5q0 223 -142.5 348t-398.5 125h-655v-1434h315v459h248l307 -459h369zM1049 940q0 -92 -62.5 -147.5t-179.5 -55.5h-320v412h314q117 0 182.5 -51t65.5 -154v-4z" />
<glyph glyph-name="S" unicode="S" horiz-adv-x="1310" d="M1208 424v4q0 94 -29.5 161.5t-88 118t-143.5 86t-193 64.5q-92 25 -152.5 43.5t-95.5 39t-48.5 46t-13.5 60.5v4q0 53 46.5 89t138.5 36t184 -38t188 -104l164 238q-111 88 -242.5 135t-289.5 47q-111 0 -203 -30.5t-158.5 -88t-103.5 -136.5t-37 -177v-4 q0 -106 34 -178t95.5 -120t149.5 -81t196 -59q90 -23 146.5 -43.5t88 -41t43 -44t11.5 -54.5v-4q0 -63 -54.5 -99t-152.5 -36q-123 0 -226.5 47t-201.5 127l-186 -223q129 -117 286.5 -173t321.5 -56q117 0 213 29.5t165.5 86t108.5 139.5t39 189z" />
<glyph glyph-name="T" unicode="T" horiz-adv-x="1327" d="M1257 1143v291h-1187v-291h436v-1143h315v1143h436z" />
<glyph glyph-name="U" unicode="U" horiz-adv-x="1548" d="M1399 625v809h-316v-822q0 -172 -81.5 -258t-227.5 -86q-145 0 -227 89t-82 266v811h-315v-820q0 -317 165.5 -477t454.5 -160q143 0 260 40t199 121t126 202t44 285z" />
<glyph glyph-name="V" unicode="V" horiz-adv-x="1536" d="M1487 1434h-340l-375 -1010l-375 1010h-348l580 -1444h278z" />
<glyph glyph-name="W" unicode="W" horiz-adv-x="2297" d="M2236 1434h-329l-297 -971l-322 975h-270l-322 -975l-297 971h-338l490 -1444h274l324 938l324 -938h274z" />
<glyph glyph-name="X" unicode="X" horiz-adv-x="1499" d="M1436 0l-500 733l479 701h-358l-303 -465l-301 465h-369l479 -705l-500 -729h359l323 492l322 -492h369z" />
<glyph glyph-name="Y" unicode="Y" horiz-adv-x="1466" d="M1442 1434h-359l-348 -576l-342 576h-368l550 -869v-565h316v571z" />
<glyph glyph-name="Z" unicode="Z" horiz-adv-x="1449" d="M1323 0v276h-788l788 918v240h-1169v-277h764l-789 -917v-240h1194z" />
<glyph glyph-name="bracketleft" unicode="[" horiz-adv-x="952" d="M831 1434h-661v-1700h661v243h-362v1213h362v244z" />
<glyph glyph-name="backslash" unicode="\" horiz-adv-x="1085" d="M236 1634h-265l908 -1896h264z" />
<glyph glyph-name="bracketright" unicode="]" horiz-adv-x="952" d="M121 1434v-244h362v-1213h-362v-243h661v1700h-661z" />
<glyph glyph-name="asciicircum" unicode="^" d="M510 1249l186 -239h226l-304 424h-212l-304 -424h222z" />
<glyph glyph-name="underscore" unicode="_" horiz-adv-x="1228" d="M-4 -90v-238h1237v238h-1237z" />
<glyph glyph-name="grave" unicode="`" d="M725 1219l-231 362l-269 -117l262 -245h238z" />
<glyph glyph-name="a" unicode="a" horiz-adv-x="1212" d="M1083 0v637q0 223 -116.5 348t-372.5 125q-139 0 -237.5 -24.5t-188.5 -63.5l78 -238q76 29 144.5 44.5t158.5 15.5q117 0 176 -51.5t59 -149.5v-18q-59 20 -121.5 32.5t-146.5 12.5q-98 0 -179 -21.5t-139.5 -64.5t-91 -108.5t-32.5 -156.5v-4q0 -82 29.5 -144t81 -105 t120 -64.5t146.5 -21.5q115 0 194.5 37.5t136.5 101.5v-119h301zM788 387q0 -86 -66.5 -139t-176.5 -53q-76 0 -123 34.5t-47 98.5v4q0 74 57 112.5t158 38.5q57 0 107.5 -11t90.5 -30v-55z" />
<glyph glyph-name="b" unicode="b" horiz-adv-x="1382" d="M1292 547v4q0 137 -42 242.5t-111.5 178t-159.5 109.5t-186 37q-123 0 -204 -50t-138 -128v555h-312v-1495h312v143q55 -66 136 -114.5t206 -48.5q98 0 188 36.5t158.5 109.5t110.5 178.5t42 242.5zM981 547q0 -70 -21.5 -125t-58.5 -95t-85 -61.5t-103 -21.5 t-103.5 21.5t-84.5 61.5t-57.5 96t-21.5 124v4q0 68 21.5 124t57.5 96t84 61.5t104 21.5q55 0 103 -21.5t85 -61.5t58.5 -96.5t21.5 -123.5v-4z" />
<glyph glyph-name="c" unicode="c" horiz-adv-x="1169" d="M1106 176l-182 184q-57 -53 -115.5 -84.5t-136.5 -31.5q-63 0 -114.5 23.5t-88.5 64.5t-56.5 96t-19.5 119v4q0 61 19.5 115.5t55.5 95.5t84 64.5t107 23.5q84 0 140.5 -33t109.5 -88l191 205q-78 86 -180.5 135t-257.5 49q-127 0 -232.5 -45t-181.5 -123t-119 -182 t-43 -221v-4q0 -117 43 -220.5t119 -180t181.5 -122t227.5 -45.5q164 0 266.5 56.5t182.5 144.5z" />
<glyph glyph-name="d" unicode="d" horiz-adv-x="1382" d="M1243 0v1495h-311v-541q-55 66 -136 115t-206 49q-98 0 -188.5 -37t-159 -109.5t-110.5 -178t-42 -242.5v-4q0 -137 42 -242.5t111.5 -178.5t160 -109.5t186.5 -36.5q123 0 203.5 50t138.5 128v-158h311zM936 547q0 -68 -21.5 -124t-57.5 -96t-84 -61.5t-103 -21.5 t-103.5 21.5t-85.5 61.5t-58.5 96t-21.5 124v4q0 70 21.5 125t58.5 95t85 61.5t104 21.5q55 0 103 -21.5t84 -61.5t57.5 -96.5t21.5 -123.5v-4z" />
<glyph glyph-name="e" unicode="e" horiz-adv-x="1255" d="M1163 518v4q0 117 -31.5 224.5t-98 190.5t-167 132t-237.5 49q-121 0 -220.5 -45t-171 -123t-111.5 -182t-40 -221v-4q0 -127 43 -230.5t120 -179.5t182.5 -117t227.5 -41q150 0 260.5 54.5t188.5 150.5l-178 158q-66 -59 -127.5 -86t-138.5 -27q-104 0 -175 54.5 t-94 160.5h764q2 23 3 39t1 39zM860 635h-469q18 106 78.5 169.5t159.5 63.5q98 0 157.5 -64.5t73.5 -168.5z" />
<glyph glyph-name="f" unicode="f" horiz-adv-x="782" d="M754 1221v258q-43 14 -95.5 22t-126.5 8q-166 0 -252.5 -85t-86.5 -267v-70h-130v-256h130v-831h311v831h248v254h-252v43q0 119 112 119q41 0 74 -7t68 -19z" />
<glyph glyph-name="g" unicode="g" horiz-adv-x="1382" d="M1243 248v850h-311v-144q-63 70 -145 117t-209 47q-94 0 -182.5 -33.5t-156 -99t-108.5 -161t-41 -218.5v-4q0 -123 40 -218t107.5 -160.5t155.5 -99.5t185 -34q125 0 206.5 47t151.5 131v-53q0 -147 -77 -223t-236 -76q-111 0 -198 26.5t-173 73.5l-107 -233 q104 -55 227.5 -85t258.5 -30q154 0 268.5 33t191 102.5t114.5 179t38 265.5zM936 602q0 -55 -20.5 -102t-56.5 -81t-85 -52.5t-106 -18.5q-115 0 -191 69.5t-76 184.5v4q0 55 20.5 102.5t56.5 81t84 52t106 18.5q57 0 106 -18.5t85 -52t56.5 -80.5t20.5 -103v-4z" />
<glyph glyph-name="h" unicode="h" horiz-adv-x="1275" d="M1145 0v711q0 190 -97.5 298.5t-275.5 108.5q-59 0 -106.5 -14t-86 -39t-70.5 -56.5t-58 -66.5v553h-312v-1495h312v612q0 111 52 167.5t142 56.5t139.5 -56.5t49.5 -167.5v-612h311z" />
<glyph glyph-name="i" unicode="i" horiz-adv-x="618" d="M473 1219v276h-328v-276h328zM465 0v1098h-311v-1098h311z" />
<glyph glyph-name="j" unicode="j" horiz-adv-x="618" d="M473 1219v276h-328v-276h328zM465 18v1080h-311v-1055q0 -70 -31 -98.5t-80 -28.5q-29 0 -66 6v-244q33 -6 63 -9t73 -3q174 0 263 85t89 267z" />
<glyph glyph-name="k" unicode="k" horiz-adv-x="1212" d="M1202 0l-432 666l418 432h-373l-364 -400v797h-312v-1495h312v334l108 115l287 -449h356z" />
<glyph glyph-name="l" unicode="l" horiz-adv-x="618" d="M465 0v1495h-311v-1495h311z" />
<glyph glyph-name="m" unicode="m" horiz-adv-x="1945" d="M1815 0v715q0 199 -98.5 301t-272.5 102q-113 0 -201 -44t-160 -130q-43 84 -121.5 129t-187.5 45q-59 0 -107.5 -14t-87 -39t-70.5 -56.5t-58 -66.5v156h-312v-1098h312v612q0 111 50 167.5t138 56.5t135 -56.5t47 -167.5v-612h312v612q0 111 50 167.5t138 56.5 t135 -56.5t47 -167.5v-612h312z" />
<glyph glyph-name="n" unicode="n" horiz-adv-x="1275" d="M1145 0v711q0 190 -97.5 298.5t-275.5 108.5q-59 0 -106.5 -14t-86 -39t-70.5 -56.5t-58 -66.5v156h-312v-1098h312v612q0 111 52 167.5t142 56.5t139.5 -56.5t49.5 -167.5v-612h311z" />
<glyph glyph-name="o" unicode="o" horiz-adv-x="1359" d="M1274 547v4q0 119 -45 222.5t-124 180t-187.5 120.5t-235.5 44q-129 0 -237.5 -45t-188.5 -123t-125 -181t-45 -222v-4q0 -119 45 -222.5t124 -180.5t187.5 -121t235.5 -44q129 0 237.5 45.5t188.5 123t125 181t45 222.5zM967 543q0 -61 -19.5 -115.5t-56.5 -95.5 t-89 -64.5t-120 -23.5q-66 0 -118 24.5t-91 66.5t-59.5 96t-20.5 116v4q0 61 19.5 115.5t56.5 95.5t89 64.5t120 23.5q63 0 116.5 -24.5t92.5 -66.5t59.5 -96.5t20.5 -115.5v-4z" />
<glyph glyph-name="p" unicode="p" horiz-adv-x="1382" d="M1292 547v4q0 137 -42 242.5t-111.5 178t-159.5 109.5t-186 37q-123 0 -204 -50t-138 -128v158h-312v-1426h312v471q55 -66 136 -114.5t206 -48.5q98 0 188 36.5t158.5 109.5t110.5 178.5t42 242.5zM981 547q0 -70 -21.5 -125t-58.5 -95t-85 -61.5t-103 -21.5 t-103.5 21.5t-84.5 61.5t-57.5 96t-21.5 124v4q0 68 21.5 124t57.5 96t84 61.5t104 21.5q55 0 103 -21.5t85 -61.5t58.5 -96.5t21.5 -123.5v-4z" />
<glyph glyph-name="q" unicode="q" horiz-adv-x="1382" d="M1243 -328v1426h-311v-144q-55 66 -136 115t-206 49q-98 0 -188.5 -37t-159 -109.5t-110.5 -178t-42 -242.5v-4q0 -137 42 -242.5t111.5 -178.5t160 -109.5t186.5 -36.5q123 0 203.5 50t138.5 128v-486h311zM936 547q0 -68 -21.5 -124t-57.5 -96t-84 -61.5t-103 -21.5 t-103.5 21.5t-85.5 61.5t-58.5 96t-21.5 124v4q0 70 21.5 125t58.5 95t85 61.5t104 21.5q55 0 103 -21.5t84 -61.5t57.5 -96.5t21.5 -123.5v-4z" />
<glyph glyph-name="r" unicode="r" horiz-adv-x="856" d="M801 793v325q-139 6 -221 -61.5t-129 -179.5v221h-312v-1098h312v406q0 199 89 293t244 94h17z" />
<glyph glyph-name="s" unicode="s" horiz-adv-x="1028" d="M944 334v4q0 76 -30.5 129t-78 90t-106.5 62.5t-117 44.5q-45 14 -85 28.5t-70.5 29.5t-49 32.5t-18.5 40.5v4q0 33 28.5 54t86.5 21q59 0 137 -27.5t160 -74.5l119 215q-90 59 -198 93t-212 34q-84 0 -156.5 -22.5t-127 -67.5t-86 -109.5t-31.5 -148.5v-4 q0 -80 29.5 -135.5t76.5 -93t105.5 -61t115.5 -40.5l86 -26q41 -12 73 -25.5t50.5 -32t18.5 -43.5v-4q0 -37 -32 -59.5t-100 -22.5q-78 0 -167 33t-179 98l-133 -205q111 -86 233 -125.5t238 -39.5q88 0 165 21.5t134.5 64.5t89 109.5t31.5 158.5z" />
<glyph glyph-name="t" unicode="t" horiz-adv-x="849" d="M756 45v250q-72 -39 -154 -39q-100 0 -100 106v469h258v267h-258v280h-312v-280h-131v-267h131v-520q0 -96 24 -158.5t66 -101.5t100 -54t130 -15q78 0 137.5 17t108.5 46z" />
<glyph glyph-name="u" unicode="u" horiz-adv-x="1275" d="M1137 0v1098h-312v-613q0 -111 -52 -167t-142 -56t-139.5 56.5t-49.5 166.5v613h-311v-711q0 -190 97.5 -298.5t275.5 -108.5q59 0 106 14t86 38.5t71 56.5t58 67v-156h312z" />
<glyph glyph-name="v" unicode="v" horiz-adv-x="1228" d="M1188 1098h-324l-248 -736l-245 736h-330l432 -1106h283z" />
<glyph glyph-name="w" unicode="w" horiz-adv-x="1763" d="M1714 1098h-309l-180 -668l-209 672h-268l-207 -670l-176 666h-316l338 -1106h279l215 674l211 -674h280z" />
<glyph glyph-name="x" unicode="x" horiz-adv-x="1196" d="M1149 0l-387 563l371 535h-326l-207 -320l-205 320h-334l371 -541l-385 -557h326l221 342l221 -342h334z" />
<glyph glyph-name="y" unicode="y" horiz-adv-x="1228" d="M1184 1098h-324l-239 -748l-250 748h-330l430 -1102q-20 -41 -44 -56.5t-65 -15.5q-31 0 -66.5 12.5t-66.5 30.5l-104 -225q59 -35 124.5 -55.5t151.5 -20.5q70 0 123.5 16.5t95.5 53.5t76.5 95t65.5 142z" />
<glyph glyph-name="z" unicode="z" horiz-adv-x="1153" d="M1057 0v252h-570l570 627v219h-936v-252h549l-568 -627v-219h955z" />
<glyph glyph-name="braceleft" unicode="{" horiz-adv-x="1003" d="M907 1257l-55 207q-141 -25 -233.5 -61.5t-146.5 -86.5t-76.5 -114.5t-22.5 -142.5q0 -12 1 -30.5t2 -39.5l2 -40q1 -19 1 -31q0 -121 -52.5 -166t-172.5 -45h-54v-238h54q121 0 173 -45t52 -166q0 -12 -1 -32l-2 -40l-2 -38.5t-1 -30.5q0 -78 22.5 -142.5t76.5 -114.5 t146.5 -87t233.5 -62l55 207q-82 23 -131 46.5t-75.5 52t-35 63.5t-8.5 82q0 31 3.5 75t3.5 76q0 113 -54.5 176.5t-158.5 98.5q104 35 158.5 98.5t54.5 175.5q0 33 -3.5 77t-3.5 75q0 47 8.5 81.5t35 63.5t75.5 52t131 46z" />
<glyph glyph-name="bar" unicode="|" horiz-adv-x="716" d="M481 -262v1896h-245v-1896h245z" />
<glyph glyph-name="braceright" unicode="}" horiz-adv-x="1003" d="M903 469v238h-53q-121 0 -173 45t-52 166q0 12 1 31l2 40l2 39t1 31q0 78 -22.5 142.5t-77 114.5t-146.5 87t-233 61l-56 -207q82 -23 131 -46t76 -52t35 -63.5t8 -81.5q0 -31 -3 -75t-3 -77q0 -113 54.5 -176t158.5 -98q-104 -35 -158.5 -98.5t-54.5 -176.5 q0 -33 3 -76.5t3 -74.5q0 -47 -8 -82t-35 -63.5t-76 -52t-131 -46.5l56 -207q141 25 233 62t146.5 87t77 114.5t22.5 142.5q0 12 -1 30.5l-2 38.5l-2 40q-1 19 -1 32q0 121 52 166t173 45h53z" />
<glyph glyph-name="asciitilde" unicode="~" horiz-adv-x="1044" d="M944 762l-166 51q-23 -49 -46 -74.5t-70 -25.5q-29 0 -62 12l-72 28q-39 15 -83 27.5t-91 12.5q-53 0 -93 -20.5t-69.5 -57.5t-51 -89.5t-40.5 -115.5l166 -51q23 49 46.5 74.5t70.5 25.5q27 0 60 -12l73 -28q39 -15 83 -27.5t91 -12.5q106 0 162.5 77t91.5 206z" />
<glyph glyph-name="exclamdown" unicode="&#xa1;" horiz-adv-x="663" d="M166 1434v-328h332v328h-332zM514 0v41l-96 905h-172l-96 -905v-41h364z" />
<glyph glyph-name="cent" unicode="&#xa2;" horiz-adv-x="1189" d="M713 426l112 565q29 -14 52.5 -32.5t48.5 -43.5l184 199q-47 51 -100.5 90t-120.5 62l35 180h-213l-29 -148h-12q-125 0 -230.5 -45t-181.5 -122.5t-119 -182t-43 -223.5q0 -92 27 -177t76 -154.5t116.5 -122t149.5 -83.5l-39 -200h213l33 168q150 4 254 60t184 146 l-176 179q-49 -47 -102 -77t-119 -38zM639 1030l-111 -567q-63 41 -97 110.5t-34 155.5q0 59 17.5 111.5t49.5 93.5t77 66.5t98 29.5z" />
<glyph glyph-name="sterling" unicode="&#xa3;" horiz-adv-x="1318" d="M279 807h-156v-260h156v-289l-156 -51v-207h1098v272h-623v275h467v260h-467v158q0 92 46 144t124 52q66 0 115 -33.5t102 -101.5l240 193q-37 49 -81 92t-99.5 74.5t-125 50t-155.5 18.5q-236 0 -360.5 -127t-124.5 -354v-166z" />
<glyph glyph-name="currency" unicode="&#xa4;" horiz-adv-x="1474" d="M254 791q-2 -18 -2 -39v-37v-33q0 -14 2 -31h-154v-207h189q31 -104 85 -191t131 -148.5t175 -95.5t215 -34q176 0 294 78t208 205l-226 166q-68 -84 -128 -126t-148 -42q-98 0 -168 48t-109 140h381v207h-426q-2 16 -2 33v35v37q0 18 2 35h426v206h-376 q39 86 103.5 133.5t156.5 47.5q90 0 151.5 -42t120.5 -120l238 180q-41 57 -89.5 105.5t-108.5 83t-136 54t-170 19.5q-115 0 -210 -33.5t-170 -95t-130 -146.5t-86 -186h-193v-206h154z" />
<glyph glyph-name="yen" unicode="&#xa5;" horiz-adv-x="1404" d="M854 537h377v221h-297l442 676h-352l-317 -531l-316 531h-362l438 -676h-293v-221h377v-127h-377v-222h377v-188h303v188h377v222h-377v127z" />
<glyph glyph-name="section" unicode="&#xa7;" horiz-adv-x="1294" d="M1182 729q0 59 -26 104.5t-81 81t-141 65.5t-207 56q-74 16 -118 29.5t-67.5 27t-31.5 27t-8 31.5q0 35 32.5 55.5t102.5 20.5q86 0 157.5 -35t143.5 -100l168 168q-86 94 -203 144t-274 50q-201 0 -310.5 -86t-109.5 -233q0 -53 20.5 -103.5t65.5 -85.5 q-78 -29 -130 -84t-52 -157q0 -59 25.5 -104.5t80.5 -81.5t141 -65.5t207 -56.5q74 -16 118 -29.5t67.5 -26.5t32 -26.5t8.5 -31.5q0 -35 -33 -55.5t-103 -20.5q-86 0 -157.5 34.5t-143.5 100.5l-168 -168q86 -94 203 -144t275 -50q201 0 310 86t109 233q0 53 -20.5 103.5 t-65.5 84.5q78 29 130.5 84.5t52.5 157.5zM909 684q0 -41 -29.5 -66.5t-82.5 -25.5q-33 0 -79 8t-126 29q-106 27 -156.5 53.5t-50.5 67.5t29.5 66.5t83.5 25.5q33 0 79 -8.5t125 -28.5q106 -27 156.5 -53.5t50.5 -67.5z" />
<glyph glyph-name="dieresis" unicode="&#xa8;" d="M881 1219v276h-299v-276h299zM442 1219v276h-299v-276h299z" />
<glyph glyph-name="copyright" unicode="&#xa9;" horiz-adv-x="1699" d="M1591 719q0 152 -57 287t-156.5 235t-234.5 158.5t-291 58.5t-292 -59.5t-236.5 -160.5t-157.5 -236.5t-57 -286.5q0 -152 57 -287t156.5 -235.5t234.5 -159t291 -58.5t292 59.5t236.5 161t157.5 236.5t57 287zM1505 719q0 -137 -50 -257t-138 -210t-208 -142.5 t-261 -52.5q-139 0 -259 51.5t-208 140.5t-137 209t-49 257t50 257t138 210t208 142t261 52q139 0 259 -51t207 -140t137 -209t50 -257zM1182 461l-115 114q-47 -41 -92 -66.5t-111 -25.5q-49 0 -91 19.5t-71.5 52.5t-46 78t-16.5 94q0 51 16.5 95t47 77t71.5 52.5t90 19.5 q57 0 105.5 -23.5t93.5 -64.5l113 131q-55 53 -127 87t-185 34q-90 0 -165.5 -33t-130 -88.5t-84 -130t-29.5 -158.5q0 -86 30.5 -159.5t84 -128t128 -86.5t160.5 -32q115 0 189 38t135 104z" />
<glyph glyph-name="ordfeminine" unicode="&#xaa;" horiz-adv-x="798" d="M662 829v351q0 123 -63.5 191.5t-205.5 68.5q-78 0 -131 -13.5t-104 -35.5l43 -129q41 16 79.5 24t86.5 8q66 0 98.5 -28.5t32.5 -81.5v-10q-33 10 -68 17t-80 7q-109 0 -176.5 -47t-67.5 -147q0 -92 60.5 -139.5t146.5 -47.5q63 0 107.5 21.5t75.5 56.5v-66h166z M670 567v135h-570v-135h570zM500 1042q0 -47 -38 -76.5t-97 -29.5q-41 0 -67 19.5t-26 56.5q0 41 32 62.5t85 21.5q33 0 60.5 -6.5t50.5 -16.5v-31z" />
<glyph glyph-name="guillemotleft" unicode="&#xab;" horiz-adv-x="1320" d="M985 1016l-344 -459v-16l344 -459l238 119l-267 350l267 350zM428 1016l-344 -459v-16l344 -459l238 119l-267 350l267 350z" />
<glyph glyph-name="registered" unicode="&#xae;" horiz-adv-x="1699" d="M1591 719q0 152 -57 287t-156.5 235t-234.5 158.5t-291 58.5t-292 -59.5t-236.5 -160.5t-157.5 -236.5t-57 -286.5q0 -152 57 -287t156.5 -235.5t234.5 -159t291 -58.5t292 59.5t236.5 161t157.5 236.5t57 287zM1505 719q0 -137 -50 -257t-138 -210t-208 -142.5 t-261 -52.5q-139 0 -259 51.5t-208 140.5t-137 209t-49 257t50 257t138 210t208 142t261 52q139 0 259 -51t207 -140t137 -209t50 -257zM1204 872q0 123 -84 192t-225 69h-350v-789h174v254h137l168 -254h203l-193 283q76 29 123 88t47 157zM1028 862q0 -51 -35 -82.5 t-100 -31.5h-174v231h170q66 0 102.5 -29t36.5 -88z" />
<glyph glyph-name="uni02C9" unicode="&#xaf;" d="M881 1229v215h-738v-215h738z" />
<glyph glyph-name="uni02C9" unicode="&#x2c9;" d="M881 1229v215h-738v-215h738z" />
<glyph glyph-name="degree" unicode="&#xb0;" horiz-adv-x="983" d="M846 1100q0 70 -29 132t-78 110.5t-113.5 76t-133.5 27.5q-70 0 -134.5 -27.5t-113.5 -76t-78 -111t-29 -131.5q0 -70 29 -132.5t78 -110.5t113.5 -75.5t134.5 -27.5t134 27.5t113 75.5t78 110.5t29 132.5zM680 1100q0 -39 -14.5 -74t-39 -61.5t-59.5 -42t-75 -15.5 q-41 0 -76 15.5t-59.5 42t-39 61.5t-14.5 74t14.5 73.5t39 61.5t59.5 42t76 15t75.5 -15t59 -42t39 -61.5t14.5 -73.5z" />
<glyph glyph-name="plusminus" unicode="&#xb1;" horiz-adv-x="1257" d="M1167 424q0 127 -64.5 198.5t-162.5 114.5q84 47 136 125t52 209q0 86 -35.5 156.5t-103 122t-162 80t-211.5 28.5q-92 0 -165.5 -18.5t-135 -53t-112.5 -83t-101 -109.5l217 -184q66 74 133.5 120t159.5 46q98 0 152.5 -43t54.5 -111q0 -74 -56 -121t-167 -47h-166v-262 h158q129 0 199.5 -41t70.5 -123q0 -78 -54 -124t-157 -46q-117 0 -203 45t-157 121l-211 -205q104 -113 246.5 -178.5t320.5 -65.5q125 0 223.5 34t165 93.5t101 142.5t34.5 179z" />
<glyph glyph-name="acute" unicode="&#xb4;" d="M537 1219l262 245l-269 117l-231 -362h238z" />
<glyph glyph-name="mu" unicode="&#xb5;" horiz-adv-x="1740" d="M1632 719q0 154 -56 289t-157.5 234t-241 157.5t-305.5 58.5t-306 -58.5t-241.5 -159.5t-158.5 -236.5t-57 -288.5q0 -154 56 -289t157.5 -234.5t240.5 -158t305 -58.5q113 0 217 29l215 -211h463v21l-364 368q111 102 172 240.5t61 296.5zM1303 715q0 -92 -32 -174 t-88.5 -143.5t-136 -96.5t-174.5 -35q-96 0 -175 36t-137 97.5t-90 144.5t-32 175t32 174t88 143.5t135 96t175 34.5q94 0 174 -35.5t138.5 -97t90.5 -144.5t32 -175z" />
<glyph glyph-name="mu" unicode="&#x3bc;" horiz-adv-x="1740" d="M1632 719q0 154 -56 289t-157.5 234t-241 157.5t-305.5 58.5t-306 -58.5t-241.5 -159.5t-158.5 -236.5t-57 -288.5q0 -154 56 -289t157.5 -234.5t240.5 -158t305 -58.5q113 0 217 29l215 -211h463v21l-364 368q111 102 172 240.5t61 296.5zM1303 715q0 -92 -32 -174 t-88.5 -143.5t-136 -96.5t-174.5 -35q-96 0 -175 36t-137 97.5t-90 144.5t-32 175t32 174t88 143.5t135 96t175 34.5q94 0 174 -35.5t138.5 -97t90.5 -144.5t32 -175z" />
<glyph glyph-name="paragraph" unicode="&#xb6;" horiz-adv-x="1208" d="M637 1434q-127 0 -230.5 -33t-178 -95.5t-115.5 -152.5t-41 -203q0 -121 45 -210t126 -149.5t190.5 -90t238.5 -29.5h49v-471h315v1434h-399z" />
<glyph glyph-name="periodcentered" unicode="&#xb7;" horiz-adv-x="585" d="M459 471v328h-332v-328h332z" />
<glyph glyph-name="cedilla" unicode="&#xb8;" d="M424 20l-182 -266l260 -108l151 374h-229z" />
<glyph glyph-name="ordmasculine" unicode="&#xba;" horiz-adv-x="798" d="M715 1130q0 66 -23.5 123.5t-65.5 99.5t-99.5 66.5t-125.5 24.5t-126 -24.5t-100 -67.5t-66.5 -100.5t-24.5 -123.5t23.5 -123t65.5 -99t99.5 -66.5t124.5 -24.5q68 0 126.5 24.5t100.5 67.5t66.5 100t24.5 123zM694 567v135h-590v-135h590zM547 1128q0 -68 -39 -116.5 t-107 -48.5t-108.5 50t-40.5 117q0 68 39 117t106 49q68 0 109 -50t41 -118z" />
<glyph glyph-name="guillemotright" unicode="&#xbb;" horiz-adv-x="1320" d="M893 82l344 459v16l-344 459l-238 -119l267 -350l-267 -350zM336 82l344 459v16l-344 459l-238 -119l267 -350l-267 -350z" />
<glyph glyph-name="questiondown" unicode="&#xbf;" horiz-adv-x="1114" d="M446 1434v-328h332v328h-332zM748 604l10 10l-47 332h-209l-23 -125q-84 -16 -157.5 -46t-128 -79t-86 -119.5t-31.5 -168.5q0 -102 35.5 -182.5t101.5 -134.5t157 -81.5t201 -27.5q168 0 290 61t212 160l-188 207q-72 -72 -146.5 -107t-160.5 -35q-90 0 -139.5 38 t-49.5 110q0 84 82 132t277 56z" />
<glyph glyph-name="Agrave" unicode="&#xc0;" horiz-adv-x="1617" d="M1569 0l-615 1444h-290l-615 -1444h322l131 322h606l131 -322h330zM995 600h-381l191 465zM940 1547l-231 362l-269 -117l262 -245h238z" />
<glyph glyph-name="Aacute" unicode="&#xc1;" horiz-adv-x="1617" d="M1569 0l-615 1444h-290l-615 -1444h322l131 322h606l131 -322h330zM995 600h-381l191 465zM916 1547l262 245l-269 117l-231 -362h238z" />
<glyph glyph-name="Acircumflex" unicode="&#xc2;" horiz-adv-x="1617" d="M1569 0l-615 1444h-290l-615 -1444h322l131 322h606l131 -322h330zM995 600h-381l191 465zM807 1682l162 -135h239l-252 321h-294l-252 -321h235z" />
<glyph glyph-name="Atilde" unicode="&#xc3;" horiz-adv-x="1617" d="M1569 0l-615 1444h-290l-615 -1444h322l131 322h606l131 -322h330zM995 600h-381l191 465zM1231 1829l-166 51q-23 -49 -46.5 -74.5t-70.5 -25.5q-29 0 -61 12l-72 28q-39 15 -83 27.5t-91 12.5q-53 0 -93 -20.5t-69.5 -57.5t-51 -89t-40.5 -116l166 -51q23 49 46.5 74.5 t70.5 25.5q27 0 60 -12l73 -28q39 -15 83 -27t91 -12q106 0 162.5 76.5t91.5 205.5z" />
<glyph glyph-name="Adieresis" unicode="&#xc4;" horiz-adv-x="1617" d="M1569 0l-615 1444h-290l-615 -1444h322l131 322h606l131 -322h330zM995 600h-381l191 465zM1178 1547v276h-299v-276h299zM739 1547v276h-299v-276h299z" />
<glyph glyph-name="Aring" unicode="&#xc5;" horiz-adv-x="1617" d="M1569 0l-598 1407q39 35 62.5 81t23.5 99q0 49 -20.5 93t-54.5 76t-79 51.5t-94 19.5t-94 -19.5t-79 -51.5t-54.5 -76t-20.5 -93q0 -53 23.5 -99t62.5 -81l-598 -1407h322l131 322h606l131 -322h330zM936 1587q0 -53 -37 -90t-90 -37t-90 37t-37 90t37 90t90 37t90 -37 t37 -90zM995 600h-381l191 465z" />
<glyph glyph-name="AE" unicode="&#xc6;" horiz-adv-x="2140" d="M2032 0v281h-727v301h624v280h-624v291h716v281h-1230l-773 -1434h322l170 322h481v-322h1041zM991 600h-334l297 561h37v-561z" />
<glyph glyph-name="Ccedilla" unicode="&#xc7;" horiz-adv-x="1511" d="M668 -4l-164 -242l260 -108l133 331q92 4 168 23.5t140.5 52.5t119.5 78t107 100l-201 203q-84 -78 -169 -123t-208 -45q-92 0 -169 36t-131 97.5t-85 144.5t-31 175t31 174t86 143.5t132 96t167 34.5q109 0 196 -43t171 -118l200 231q-49 49 -106.5 90t-125 69.5 t-150.5 45t-183 16.5q-166 0 -303 -58.5t-235.5 -159.5t-153.5 -236.5t-55 -288.5q0 -133 40.5 -251t114.5 -213t177.5 -160.5t226.5 -94.5z" />
<glyph glyph-name="Egrave" unicode="&#xc8;" horiz-adv-x="1372" d="M1264 0v281h-779v301h676v280h-676v291h768v281h-1081v-1434h1092zM887 1547l-231 362l-269 -117l262 -245h238z" />
<glyph glyph-name="Eacute" unicode="&#xc9;" horiz-adv-x="1372" d="M1264 0v281h-779v301h676v280h-676v291h768v281h-1081v-1434h1092zM779 1547l262 245l-269 117l-231 -362h238z" />
<glyph glyph-name="Ecircumflex" unicode="&#xca;" horiz-adv-x="1372" d="M1264 0v281h-779v301h676v280h-676v291h768v281h-1081v-1434h1092zM707 1682l162 -135h239l-252 321h-294l-252 -321h235z" />
<glyph glyph-name="Edieresis" unicode="&#xcb;" horiz-adv-x="1372" d="M1264 0v281h-779v301h676v280h-676v291h768v281h-1081v-1434h1092zM1078 1547v276h-299v-276h299zM639 1547v276h-299v-276h299z" />
<glyph glyph-name="Igrave" unicode="&#xcc;" horiz-adv-x="688" d="M502 0v1434h-316v-1434h316zM688 1547l-231 362l-269 -117l262 -245h238z" />
<glyph glyph-name="Iacute" unicode="&#xcd;" horiz-adv-x="688" d="M502 0v1434h-316v-1434h316zM453 1547l262 245l-269 117l-231 -362h238z" />
<glyph glyph-name="Icircumflex" unicode="&#xce;" horiz-adv-x="688" d="M502 0v1434h-316v-1434h316zM584 1682l162 -135h239l-252 321h-294l-252 -321h235z" />
<glyph glyph-name="Idieresis" unicode="&#xcf;" horiz-adv-x="688" d="M502 0v1434h-316v-1434h316zM924 1547v276h-299v-276h299zM485 1547v276h-299v-276h299z" />
<glyph glyph-name="Eth" unicode="&#xd0;" horiz-adv-x="1662" d="M233 582v-582h560q168 0 308 55.5t241.5 151.5t156.5 228t55 284t-55 283t-156.5 227t-241.5 150.5t-308 54.5h-560v-574h-153v-278h153zM545 860v289h248q96 0 176 -32t136 -89t88 -137t32 -176t-32 -175t-88 -136.5t-136 -88t-176 -30.5h-248v297h311v278h-311z" />
<glyph glyph-name="Ntilde" unicode="&#xd1;" horiz-adv-x="1617" d="M1446 0v1434h-311v-883l-672 883h-291v-1434h311v911l695 -911h268zM1231 1829l-166 51q-23 -49 -46.5 -74.5t-70.5 -25.5q-29 0 -61 12l-72 28q-39 15 -83 27.5t-91 12.5q-53 0 -93 -20.5t-69.5 -57.5t-51 -89t-40.5 -116l166 -51q23 49 46.5 74.5t70.5 25.5 q27 0 60 -12l73 -28q39 -15 83 -27t91 -12q106 0 162.5 76.5t91.5 205.5z" />
<glyph glyph-name="Ograve" unicode="&#xd2;" horiz-adv-x="1740" d="M1632 717v4q0 154 -56 288t-157.5 233t-241 157.5t-305.5 58.5t-306 -58.5t-241.5 -159.5t-158.5 -235.5t-57 -287.5v-4q0 -154 56 -288t157.5 -233.5t240.5 -158t305 -58.5t306.5 58.5t242 160t158.5 235.5t57 288zM1303 713q0 -92 -32 -173t-88.5 -142.5t-136 -96.5 t-174.5 -35q-96 0 -175 36t-137 97.5t-90 143.5t-32 174v4q0 92 32 173t88 142.5t135 96t175 34.5q94 0 174 -35.5t138.5 -97t90.5 -143.5t32 -174v-4zM981 1547l-231 362l-269 -117l262 -245h238z" />
<glyph glyph-name="Oacute" unicode="&#xd3;" horiz-adv-x="1740" d="M1632 717v4q0 154 -56 288t-157.5 233t-241 157.5t-305.5 58.5t-306 -58.5t-241.5 -159.5t-158.5 -235.5t-57 -287.5v-4q0 -154 56 -288t157.5 -233.5t240.5 -158t305 -58.5t306.5 58.5t242 160t158.5 235.5t57 288zM1303 713q0 -92 -32 -173t-88.5 -142.5t-136 -96.5 t-174.5 -35q-96 0 -175 36t-137 97.5t-90 143.5t-32 174v4q0 92 32 173t88 142.5t135 96t175 34.5q94 0 174 -35.5t138.5 -97t90.5 -143.5t32 -174v-4zM998 1547l262 245l-269 117l-231 -362h238z" />
<glyph glyph-name="Ocircumflex" unicode="&#xd4;" horiz-adv-x="1740" d="M1632 717v4q0 154 -56 288t-157.5 233t-241 157.5t-305.5 58.5t-306 -58.5t-241.5 -159.5t-158.5 -235.5t-57 -287.5v-4q0 -154 56 -288t157.5 -233.5t240.5 -158t305 -58.5t306.5 58.5t242 160t158.5 235.5t57 288zM1303 713q0 -92 -32 -173t-88.5 -142.5t-136 -96.5 t-174.5 -35q-96 0 -175 36t-137 97.5t-90 143.5t-32 174v4q0 92 32 173t88 142.5t135 96t175 34.5q94 0 174 -35.5t138.5 -97t90.5 -143.5t32 -174v-4zM868 1682l162 -135h239l-252 321h-294l-252 -321h235z" />
<glyph glyph-name="Otilde" unicode="&#xd5;" horiz-adv-x="1740" d="M1632 717v4q0 154 -56 288t-157.5 233t-241 157.5t-305.5 58.5t-306 -58.5t-241.5 -159.5t-158.5 -235.5t-57 -287.5v-4q0 -154 56 -288t157.5 -233.5t240.5 -158t305 -58.5t306.5 58.5t242 160t158.5 235.5t57 288zM1303 713q0 -92 -32 -173t-88.5 -142.5t-136 -96.5 t-174.5 -35q-96 0 -175 36t-137 97.5t-90 143.5t-32 174v4q0 92 32 173t88 142.5t135 96t175 34.5q94 0 174 -35.5t138.5 -97t90.5 -143.5t32 -174v-4zM1292 1829l-166 51q-23 -49 -46.5 -74.5t-70.5 -25.5q-29 0 -61 12l-72 28q-39 15 -83 27.5t-91 12.5q-53 0 -93 -20.5 t-69.5 -57.5t-51 -89t-40.5 -116l166 -51q23 49 46.5 74.5t70.5 25.5q27 0 60 -12l73 -28q39 -15 83 -27t91 -12q106 0 162.5 76.5t91.5 205.5z" />
<glyph glyph-name="Odieresis" unicode="&#xd6;" horiz-adv-x="1740" d="M1632 717v4q0 154 -56 288t-157.5 233t-241 157.5t-305.5 58.5t-306 -58.5t-241.5 -159.5t-158.5 -235.5t-57 -287.5v-4q0 -154 56 -288t157.5 -233.5t240.5 -158t305 -58.5t306.5 58.5t242 160t158.5 235.5t57 288zM1303 713q0 -92 -32 -173t-88.5 -142.5t-136 -96.5 t-174.5 -35q-96 0 -175 36t-137 97.5t-90 143.5t-32 174v4q0 92 32 173t88 142.5t135 96t175 34.5q94 0 174 -35.5t138.5 -97t90.5 -143.5t32 -174v-4zM1239 1547v276h-299v-276h299zM800 1547v276h-299v-276h299z" />
<glyph glyph-name="Oslash" unicode="&#xd8;" horiz-adv-x="1740" d="M1632 719q0 143 -48 268t-136 223l201 234h-301l-80 -88q-86 49 -185.5 75.5t-210.5 26.5q-166 0 -306 -58.5t-241.5 -159.5t-158.5 -236.5t-57 -288.5q0 -143 48 -268t136 -224l-201 -233h301l80 88q86 -49 185.5 -76t209.5 -27q166 0 306.5 58.5t242 160t158.5 236.5 t57 289zM1071 1124l-567 -657q-72 113 -72 252q0 92 32 174t89 144.5t138 99.5t177 37q57 0 107.5 -13.5t95.5 -36.5zM1309 715q0 -92 -32 -174t-89.5 -144.5t-138 -99.5t-177.5 -37q-57 0 -107 13.5t-95 35.5l567 658q72 -113 72 -252z" />
<glyph glyph-name="Ugrave" unicode="&#xd9;" horiz-adv-x="1548" d="M1399 625v809h-316v-822q0 -172 -81.5 -258t-227.5 -86q-145 0 -227 89t-82 266v811h-315v-820q0 -317 165.5 -477t454.5 -160q143 0 260 40t199 121t126 202t44 285zM915 1536l-231 362l-269 -117l262 -245h238z" />
<glyph glyph-name="Uacute" unicode="&#xda;" horiz-adv-x="1548" d="M1399 625v809h-316v-822q0 -172 -81.5 -258t-227.5 -86q-145 0 -227 89t-82 266v811h-315v-820q0 -317 165.5 -477t454.5 -160q143 0 260 40t199 121t126 202t44 285zM871 1536l262 245l-269 117l-231 -362h238z" />
<glyph glyph-name="Ucircumflex" unicode="&#xdb;" horiz-adv-x="1548" d="M1399 625v809h-316v-822q0 -172 -81.5 -258t-227.5 -86q-145 0 -227 89t-82 266v811h-315v-820q0 -317 165.5 -477t454.5 -160q143 0 260 40t199 121t126 202t44 285zM772 1682l162 -135h239l-252 321h-294l-252 -321h235z" />
<glyph glyph-name="Udieresis" unicode="&#xdc;" horiz-adv-x="1548" d="M1399 625v809h-316v-822q0 -172 -81.5 -258t-227.5 -86q-145 0 -227 89t-82 266v811h-315v-820q0 -317 165.5 -477t454.5 -160q143 0 260 40t199 121t126 202t44 285zM1143 1547v276h-299v-276h299zM704 1547v276h-299v-276h299z" />
<glyph glyph-name="Yacute" unicode="&#xdd;" horiz-adv-x="1466" d="M1442 1434h-359l-348 -576l-342 576h-368l550 -869v-565h316v571zM850 1536l262 245l-269 117l-231 -362h238z" />
<glyph glyph-name="Thorn" unicode="&#xde;" horiz-adv-x="1378" d="M1307 727q0 111 -38 203t-108.5 157.5t-172 101.5t-230.5 36h-271v209h-315v-1434h315v221h240q121 0 226.5 32t184.5 95.5t124 158.5t45 220zM987 721q0 -96 -65.5 -157.5t-184.5 -61.5h-250v438h244q119 0 187.5 -55t68.5 -164z" />
<glyph glyph-name="germandbls" unicode="&#xdf;" horiz-adv-x="1269" d="M1100 1110q0 84 -30 156.5t-88 127t-143 85t-196 30.5q-115 0 -208 -32.5t-158.5 -94t-101.5 -150.5t-36 -202v-1030h310v1042q0 94 50 149.5t130 55.5q76 0 120 -44t44 -122q0 -86 -52.5 -147.5t-128.5 -108.5v-204q113 -16 187.5 -65.5t74.5 -135.5q0 -90 -67.5 -137 t-194.5 -54v-233q129 -6 234.5 19.5t180.5 78.5t115 133t40 183q0 74 -22.5 132t-59.5 102t-85 76t-102 54q39 27 73 57.5t59.5 70.5t40 90t14.5 118z" />
<glyph glyph-name="agrave" unicode="&#xe0;" horiz-adv-x="1212" d="M1083 0v637q0 223 -116.5 348t-372.5 125q-139 0 -237.5 -24.5t-188.5 -63.5l78 -238q76 29 144.5 44.5t158.5 15.5q117 0 176 -51.5t59 -149.5v-18q-59 20 -121.5 32.5t-146.5 12.5q-98 0 -179 -21.5t-139.5 -64.5t-91 -108.5t-32.5 -156.5v-4q0 -82 29.5 -144t81 -105 t120 -64.5t146.5 -21.5q115 0 194.5 37.5t136.5 101.5v-119h301zM788 387q0 -86 -66.5 -139t-176.5 -53q-76 0 -123 34.5t-47 98.5v4q0 74 57 112.5t158 38.5q57 0 107.5 -11t90.5 -30v-55zM758 1219l-231 362l-269 -117l262 -245h238z" />
<glyph glyph-name="aacute" unicode="&#xe1;" horiz-adv-x="1212" d="M1083 0v637q0 223 -116.5 348t-372.5 125q-139 0 -237.5 -24.5t-188.5 -63.5l78 -238q76 29 144.5 44.5t158.5 15.5q117 0 176 -51.5t59 -149.5v-18q-59 20 -121.5 32.5t-146.5 12.5q-98 0 -179 -21.5t-139.5 -64.5t-91 -108.5t-32.5 -156.5v-4q0 -82 29.5 -144t81 -105 t120 -64.5t146.5 -21.5q115 0 194.5 37.5t136.5 101.5v-119h301zM788 387q0 -86 -66.5 -139t-176.5 -53q-76 0 -123 34.5t-47 98.5v4q0 74 57 112.5t158 38.5q57 0 107.5 -11t90.5 -30v-55zM703 1219l262 245l-269 117l-231 -362h238z" />
<glyph glyph-name="acircumflex" unicode="&#xe2;" horiz-adv-x="1212" d="M1083 0v637q0 223 -116.5 348t-372.5 125q-139 0 -237.5 -24.5t-188.5 -63.5l78 -238q76 29 144.5 44.5t158.5 15.5q117 0 176 -51.5t59 -149.5v-18q-59 20 -121.5 32.5t-146.5 12.5q-98 0 -179 -21.5t-139.5 -64.5t-91 -108.5t-32.5 -156.5v-4q0 -82 29.5 -144t81 -105 t120 -64.5t146.5 -21.5q115 0 194.5 37.5t136.5 101.5v-119h301zM788 387q0 -86 -66.5 -139t-176.5 -53q-76 0 -123 34.5t-47 98.5v4q0 74 57 112.5t158 38.5q57 0 107.5 -11t90.5 -30v-55zM600 1354l162 -135h239l-252 321h-294l-252 -321h235z" />
<glyph glyph-name="atilde" unicode="&#xe3;" horiz-adv-x="1212" d="M1083 0v637q0 223 -116.5 348t-372.5 125q-139 0 -237.5 -24.5t-188.5 -63.5l78 -238q76 29 144.5 44.5t158.5 15.5q117 0 176 -51.5t59 -149.5v-18q-59 20 -121.5 32.5t-146.5 12.5q-98 0 -179 -21.5t-139.5 -64.5t-91 -108.5t-32.5 -156.5v-4q0 -82 29.5 -144t81 -105 t120 -64.5t146.5 -21.5q115 0 194.5 37.5t136.5 101.5v-119h301zM788 387q0 -86 -66.5 -139t-176.5 -53q-76 0 -123 34.5t-47 98.5v4q0 74 57 112.5t158 38.5q57 0 107.5 -11t90.5 -30v-55zM1028 1501l-166 51q-23 -49 -46.5 -74.5t-70.5 -25.5q-29 0 -61 12l-72 28 q-39 15 -83 27.5t-91 12.5q-53 0 -93 -20.5t-69.5 -57.5t-51 -89t-40.5 -116l166 -51q23 49 46.5 74.5t70.5 25.5q27 0 60 -12l73 -28q39 -15 83 -27t91 -12q106 0 162.5 76.5t91.5 205.5z" />
<glyph glyph-name="adieresis" unicode="&#xe4;" horiz-adv-x="1212" d="M1083 0v637q0 223 -116.5 348t-372.5 125q-139 0 -237.5 -24.5t-188.5 -63.5l78 -238q76 29 144.5 44.5t158.5 15.5q117 0 176 -51.5t59 -149.5v-18q-59 20 -121.5 32.5t-146.5 12.5q-98 0 -179 -21.5t-139.5 -64.5t-91 -108.5t-32.5 -156.5v-4q0 -82 29.5 -144t81 -105 t120 -64.5t146.5 -21.5q115 0 194.5 37.5t136.5 101.5v-119h301zM788 387q0 -86 -66.5 -139t-176.5 -53q-76 0 -123 34.5t-47 98.5v4q0 74 57 112.5t158 38.5q57 0 107.5 -11t90.5 -30v-55zM971 1219v276h-299v-276h299zM532 1219v276h-299v-276h299z" />
<glyph glyph-name="aring" unicode="&#xe5;" horiz-adv-x="1212" d="M1083 0v637q0 223 -116.5 348t-372.5 125q-139 0 -237.5 -24.5t-188.5 -63.5l78 -238q76 29 144.5 44.5t158.5 15.5q117 0 176 -51.5t59 -149.5v-18q-59 20 -121.5 32.5t-146.5 12.5q-98 0 -179 -21.5t-139.5 -64.5t-91 -108.5t-32.5 -156.5v-4q0 -82 29.5 -144t81 -105 t120 -64.5t146.5 -21.5q115 0 194.5 37.5t136.5 101.5v-119h301zM788 387q0 -86 -66.5 -139t-176.5 -53q-76 0 -123 34.5t-47 98.5v4q0 74 57 112.5t158 38.5q57 0 107.5 -11t90.5 -30v-55zM850 1454q0 49 -20.5 93t-54.5 76t-79 51.5t-94 19.5t-94 -19.5t-79 -51.5 t-54.5 -76t-20.5 -93t20.5 -93t54.5 -76t79 -51.5t94 -19.5t94 19.5t79 51.5t54.5 76t20.5 93zM729 1454q0 -53 -37 -90t-90 -37t-90 37t-37 90t37 90t90 37t90 -37t37 -90z" />
<glyph glyph-name="ae" unicode="&#xe6;" horiz-adv-x="1947" d="M934 141q78 -78 184.5 -122t233.5 -44q150 0 260 54.5t188 150.5l-178 158q-66 -59 -127 -86t-139 -27q-104 0 -174 54.5t-95 160.5h764q2 23 3 40.5t1 39.5q0 117 -31.5 225.5t-97 191.5t-164 132t-233.5 49q-113 0 -204 -39t-158 -108q-55 68 -146.5 103.5t-226.5 35.5 q-139 0 -237.5 -24.5t-188.5 -63.5l78 -238q76 29 144.5 44.5t158.5 15.5q117 0 176 -51.5t59 -149.5v-18q-59 20 -121.5 32.5t-146.5 12.5q-98 0 -179 -21.5t-139.5 -64.5t-91 -108.5t-32.5 -153.5q0 -82 30.5 -145.5t85 -107.5t130 -66.5t167.5 -22.5q131 0 242 45.5 t205 115.5zM1083 635q18 106 79 169.5t159 63.5t157.5 -64.5t73.5 -168.5h-469zM786 444q4 -39 14.5 -73.5t24.5 -67.5q-70 -53 -140.5 -78.5t-139.5 -25.5q-76 0 -123 34.5t-47 100.5q0 76 57 112.5t158 36.5q55 0 105 -11.5t91 -27.5z" />
<glyph glyph-name="ccedilla" unicode="&#xe7;" horiz-adv-x="1169" d="M483 0l-168 -246l260 -108l134 331q141 10 232 64.5t165 134.5l-182 184q-57 -53 -115.5 -84.5t-136.5 -31.5q-63 0 -114.5 23.5t-88.5 65.5t-56.5 97t-19.5 119q0 61 19.5 115.5t55.5 96.5t84 65.5t107 23.5q84 0 140.5 -33t109.5 -88l191 205q-78 86 -180.5 135 t-257.5 49q-127 0 -232.5 -45t-181.5 -123t-119 -182t-43 -223q0 -96 28.5 -183.5t81 -159t125 -123.5t162.5 -79z" />
<glyph glyph-name="egrave" unicode="&#xe8;" horiz-adv-x="1255" d="M1163 518v4q0 117 -31.5 224.5t-98 190.5t-167 132t-237.5 49q-121 0 -220.5 -45t-171 -123t-111.5 -182t-40 -221v-4q0 -127 43 -230.5t120 -179.5t182.5 -117t227.5 -41q150 0 260.5 54.5t188.5 150.5l-178 158q-66 -59 -127.5 -86t-138.5 -27q-104 0 -175 54.5 t-94 160.5h764q2 23 3 39t1 39zM860 635h-469q18 106 78.5 169.5t159.5 63.5q98 0 157.5 -64.5t73.5 -168.5zM750 1219l-231 362l-269 -117l262 -245h238z" />
<glyph glyph-name="eacute" unicode="&#xe9;" horiz-adv-x="1255" d="M1163 518v4q0 117 -31.5 224.5t-98 190.5t-167 132t-237.5 49q-121 0 -220.5 -45t-171 -123t-111.5 -182t-40 -221v-4q0 -127 43 -230.5t120 -179.5t182.5 -117t227.5 -41q150 0 260.5 54.5t188.5 150.5l-178 158q-66 -59 -127.5 -86t-138.5 -27q-104 0 -175 54.5 t-94 160.5h764q2 23 3 39t1 39zM860 635h-469q18 106 78.5 169.5t159.5 63.5q98 0 157.5 -64.5t73.5 -168.5zM742 1219l262 245l-269 117l-231 -362h238z" />
<glyph glyph-name="ecircumflex" unicode="&#xea;" horiz-adv-x="1255" d="M1163 518v4q0 117 -31.5 224.5t-98 190.5t-167 132t-237.5 49q-121 0 -220.5 -45t-171 -123t-111.5 -182t-40 -221v-4q0 -127 43 -230.5t120 -179.5t182.5 -117t227.5 -41q150 0 260.5 54.5t188.5 150.5l-178 158q-66 -59 -127.5 -86t-138.5 -27q-104 0 -175 54.5 t-94 160.5h764q2 23 3 39t1 39zM860 635h-469q18 106 78.5 169.5t159.5 63.5q98 0 157.5 -64.5t73.5 -168.5zM625 1354l162 -135h239l-252 321h-294l-252 -321h235z" />
<glyph glyph-name="edieresis" unicode="&#xeb;" horiz-adv-x="1255" d="M1163 518v4q0 117 -31.5 224.5t-98 190.5t-167 132t-237.5 49q-121 0 -220.5 -45t-171 -123t-111.5 -182t-40 -221v-4q0 -127 43 -230.5t120 -179.5t182.5 -117t227.5 -41q150 0 260.5 54.5t188.5 150.5l-178 158q-66 -59 -127.5 -86t-138.5 -27q-104 0 -175 54.5 t-94 160.5h764q2 23 3 39t1 39zM860 635h-469q18 106 78.5 169.5t159.5 63.5q98 0 157.5 -64.5t73.5 -168.5zM996 1219v276h-299v-276h299zM557 1219v276h-299v-276h299z" />
<glyph glyph-name="igrave" unicode="&#xec;" horiz-adv-x="618" d="M465 0v1098h-311v-1098h311zM655 1219l-231 362l-269 -117l262 -245h238z" />
<glyph glyph-name="iacute" unicode="&#xed;" horiz-adv-x="618" d="M465 0v1098h-311v-1098h311zM414 1219l262 245l-269 117l-231 -362h238z" />
<glyph glyph-name="icircumflex" unicode="&#xee;" horiz-adv-x="618" d="M465 0v1098h-311v-1098h311zM551 1354l162 -135h239l-252 321h-294l-252 -321h235z" />
<glyph glyph-name="idieresis" unicode="&#xef;" horiz-adv-x="618" d="M465 0v1098h-311v-1098h311zM891 1219v276h-299v-276h299zM452 1219v276h-299v-276h299z" />
<glyph glyph-name="eth" unicode="&#xf0;" horiz-adv-x="1327" d="M629 1167l178 -237q-66 35 -123 50t-129 15q-102 0 -188 -34.5t-148.5 -98t-97.5 -152.5t-35 -196q0 -113 43 -211t118 -171t179 -115t227 -42q137 0 246 45.5t184.5 122t114.5 179t39 217.5q0 66 -10 127t-31.5 120.5t-55.5 122t-83 129.5l-166 236l209 84l-113 153 l-205 -84l-47 68h-350l131 -176l-235 -94l114 -154zM934 508q0 -57 -18.5 -106.5t-53.5 -86t-85 -57t-113 -20.5q-61 0 -111.5 21.5t-87.5 58t-56.5 86t-19.5 104.5q0 57 19.5 105.5t54.5 84t86 56t113 20.5q61 0 112 -20.5t86 -57.5t54.5 -85t19.5 -103z" />
<glyph glyph-name="ntilde" unicode="&#xf1;" horiz-adv-x="1275" d="M1145 0v711q0 190 -97.5 298.5t-275.5 108.5q-59 0 -106.5 -14t-86 -39t-70.5 -56.5t-58 -66.5v156h-312v-1098h312v612q0 111 52 167.5t142 56.5t139.5 -56.5t49.5 -167.5v-612h311zM1069 1501l-166 51q-23 -49 -46.5 -74.5t-70.5 -25.5q-29 0 -61 12l-72 28 q-39 15 -83 27.5t-91 12.5q-53 0 -93 -20.5t-69.5 -57.5t-51 -89t-40.5 -116l166 -51q23 49 46.5 74.5t70.5 25.5q27 0 60 -12l73 -28q39 -15 83 -27t91 -12q106 0 162.5 76.5t91.5 205.5z" />
<glyph glyph-name="ograve" unicode="&#xf2;" horiz-adv-x="1359" d="M1274 547v4q0 119 -45 222.5t-124 180t-187.5 120.5t-235.5 44q-129 0 -237.5 -45t-188.5 -123t-125 -181t-45 -222v-4q0 -119 45 -222.5t124 -180.5t187.5 -121t235.5 -44q129 0 237.5 45.5t188.5 123t125 181t45 222.5zM967 543q0 -61 -19.5 -115.5t-56.5 -95.5 t-89 -64.5t-120 -23.5q-66 0 -118 24.5t-91 66.5t-59.5 96t-20.5 116v4q0 61 19.5 115.5t56.5 95.5t89 64.5t120 23.5q63 0 116.5 -24.5t92.5 -66.5t59.5 -96.5t20.5 -115.5v-4zM799 1219l-231 362l-269 -117l262 -245h238z" />
<glyph glyph-name="oacute" unicode="&#xf3;" horiz-adv-x="1359" d="M1274 547v4q0 119 -45 222.5t-124 180t-187.5 120.5t-235.5 44q-129 0 -237.5 -45t-188.5 -123t-125 -181t-45 -222v-4q0 -119 45 -222.5t124 -180.5t187.5 -121t235.5 -44q129 0 237.5 45.5t188.5 123t125 181t45 222.5zM967 543q0 -61 -19.5 -115.5t-56.5 -95.5 t-89 -64.5t-120 -23.5q-66 0 -118 24.5t-91 66.5t-59.5 96t-20.5 116v4q0 61 19.5 115.5t56.5 95.5t89 64.5t120 23.5q63 0 116.5 -24.5t92.5 -66.5t59.5 -96.5t20.5 -115.5v-4zM799 1219l262 245l-269 117l-231 -362h238z" />
<glyph glyph-name="ocircumflex" unicode="&#xf4;" horiz-adv-x="1359" d="M1274 547v4q0 119 -45 222.5t-124 180t-187.5 120.5t-235.5 44q-129 0 -237.5 -45t-188.5 -123t-125 -181t-45 -222v-4q0 -119 45 -222.5t124 -180.5t187.5 -121t235.5 -44q129 0 237.5 45.5t188.5 123t125 181t45 222.5zM967 543q0 -61 -19.5 -115.5t-56.5 -95.5 t-89 -64.5t-120 -23.5q-66 0 -118 24.5t-91 66.5t-59.5 96t-20.5 116v4q0 61 19.5 115.5t56.5 95.5t89 64.5t120 23.5q63 0 116.5 -24.5t92.5 -66.5t59.5 -96.5t20.5 -115.5v-4zM678 1354l162 -135h239l-252 321h-294l-252 -321h235z" />
<glyph glyph-name="otilde" unicode="&#xf5;" horiz-adv-x="1359" d="M1274 547v4q0 119 -45 222.5t-124 180t-187.5 120.5t-235.5 44q-129 0 -237.5 -45t-188.5 -123t-125 -181t-45 -222v-4q0 -119 45 -222.5t124 -180.5t187.5 -121t235.5 -44q129 0 237.5 45.5t188.5 123t125 181t45 222.5zM967 543q0 -61 -19.5 -115.5t-56.5 -95.5 t-89 -64.5t-120 -23.5q-66 0 -118 24.5t-91 66.5t-59.5 96t-20.5 116v4q0 61 19.5 115.5t56.5 95.5t89 64.5t120 23.5q63 0 116.5 -24.5t92.5 -66.5t59.5 -96.5t20.5 -115.5v-4zM1102 1501l-166 51q-23 -49 -46.5 -74.5t-70.5 -25.5q-29 0 -61 12l-72 28q-39 15 -83 27.5 t-91 12.5q-53 0 -93 -20.5t-69.5 -57.5t-51 -89t-40.5 -116l166 -51q23 49 46.5 74.5t70.5 25.5q27 0 60 -12l73 -28q39 -15 83 -27t91 -12q106 0 162.5 76.5t91.5 205.5z" />
<glyph glyph-name="odieresis" unicode="&#xf6;" horiz-adv-x="1359" d="M1274 547v4q0 119 -45 222.5t-124 180t-187.5 120.5t-235.5 44q-129 0 -237.5 -45t-188.5 -123t-125 -181t-45 -222v-4q0 -119 45 -222.5t124 -180.5t187.5 -121t235.5 -44q129 0 237.5 45.5t188.5 123t125 181t45 222.5zM967 543q0 -61 -19.5 -115.5t-56.5 -95.5 t-89 -64.5t-120 -23.5q-66 0 -118 24.5t-91 66.5t-59.5 96t-20.5 116v4q0 61 19.5 115.5t56.5 95.5t89 64.5t120 23.5q63 0 116.5 -24.5t92.5 -66.5t59.5 -96.5t20.5 -115.5v-4zM1049 1219v276h-299v-276h299zM610 1219v276h-299v-276h299z" />
<glyph glyph-name="oslash" unicode="&#xf8;" horiz-adv-x="1359" d="M1274 549q0 106 -35 199.5t-100 169.5l166 190h-273l-57 -61q-63 35 -137 53t-156 18q-129 0 -237.5 -45t-188.5 -123t-125 -182t-45 -223q0 -106 35 -199.5t98 -167.5l-164 -188h273l55 57q66 -35 139.5 -53.5t155.5 -18.5q129 0 237.5 45.5t188.5 123t125 182t45 223.5 zM795 834l-377 -431q-33 70 -33 146q0 63 20.5 119.5t59.5 98.5t92 66.5t121 24.5q64 1 117 -24zM975 545q0 -63 -20.5 -119.5t-59.5 -98.5t-92 -66.5t-121 -24.5q-59 0 -115 22l375 432q33 -69 33 -145z" />
<glyph glyph-name="ugrave" unicode="&#xf9;" horiz-adv-x="1275" d="M1137 0v1098h-312v-613q0 -111 -52 -167t-142 -56t-139.5 56.5t-49.5 166.5v613h-311v-711q0 -190 97.5 -298.5t275.5 -108.5q59 0 106 14t86 38.5t71 56.5t58 67v-156h312zM788 1219l-231 362l-269 -117l262 -245h238z" />
<glyph glyph-name="uacute" unicode="&#xfa;" horiz-adv-x="1275" d="M1137 0v1098h-312v-613q0 -111 -52 -167t-142 -56t-139.5 56.5t-49.5 166.5v613h-311v-711q0 -190 97.5 -298.5t275.5 -108.5q59 0 106 14t86 38.5t71 56.5t58 67v-156h312zM723 1219l262 245l-269 117l-231 -362h238z" />
<glyph glyph-name="ucircumflex" unicode="&#xfb;" horiz-adv-x="1275" d="M1137 0v1098h-312v-613q0 -111 -52 -167t-142 -56t-139.5 56.5t-49.5 166.5v613h-311v-711q0 -190 97.5 -298.5t275.5 -108.5q59 0 106 14t86 38.5t71 56.5t58 67v-156h312zM635 1354l162 -135h239l-252 321h-294l-252 -321h235z" />
<glyph glyph-name="udieresis" unicode="&#xfc;" horiz-adv-x="1275" d="M1137 0v1098h-312v-613q0 -111 -52 -167t-142 -56t-139.5 56.5t-49.5 166.5v613h-311v-711q0 -190 97.5 -298.5t275.5 -108.5q59 0 106 14t86 38.5t71 56.5t58 67v-156h312zM1006 1219v276h-299v-276h299zM567 1219v276h-299v-276h299z" />
<glyph glyph-name="yacute" unicode="&#xfd;" horiz-adv-x="1228" d="M1184 1098h-324l-239 -748l-250 748h-330l430 -1102q-20 -41 -44 -56.5t-65 -15.5q-31 0 -66.5 12.5t-66.5 30.5l-104 -225q59 -35 124.5 -55.5t151.5 -20.5q70 0 123.5 16.5t95.5 53.5t76.5 95t65.5 142zM707 1219l262 245l-269 117l-231 -362h238z" />
<glyph glyph-name="thorn" unicode="&#xfe;" horiz-adv-x="1382" d="M1292 549q0 137 -42 243.5t-111.5 179t-159.5 109.5t-186 37q-123 0 -204 -50t-138 -128v555h-312v-1823h312v471q55 -66 136 -114.5t206 -48.5q98 0 188 36.5t158.5 109.5t110.5 178.5t42 244.5zM981 549q0 -70 -21.5 -126t-58.5 -96t-85 -61.5t-103 -21.5t-103.5 21.5 t-84.5 61.5t-57.5 96t-21.5 126t21.5 126t57.5 96t84 61.5t104 21.5q55 0 103 -21.5t85 -61.5t58.5 -96t21.5 -126z" />
<glyph glyph-name="ydieresis" unicode="&#xff;" horiz-adv-x="1228" d="M1184 1098h-324l-239 -748l-250 748h-330l430 -1102q-20 -41 -44 -56.5t-65 -15.5q-31 0 -66.5 12.5t-66.5 30.5l-104 -225q59 -35 124.5 -55.5t151.5 -20.5q70 0 123.5 16.5t95.5 53.5t76.5 95t65.5 142zM983 1219v276h-299v-276h299zM544 1219v276h-299v-276h299z" />
<glyph glyph-name="dotlessi" unicode="&#x131;" horiz-adv-x="618" d="M465 0v1098h-311v-1098h311z" />
<glyph glyph-name="Lslash" unicode="&#x141;" horiz-adv-x="1329" d="M1264 0v287h-719v344l393 117v292l-393 -116v510h-312v-605l-153 -45v-292l153 45v-537h1031z" />
<glyph glyph-name="lslash" unicode="&#x142;" horiz-adv-x="741" d="M524 664l156 47v293l-156 -48v539h-307v-629l-156 -47v-293l156 47v-573h307v664z" />
<glyph glyph-name="OE" unicode="&#x152;" horiz-adv-x="2201" d="M2093 0v281h-727v301h625v280h-625v291h717v281h-1213q-170 0 -309 -55.5t-240.5 -153t-156.5 -228.5t-55 -282q0 -152 55 -283t156.5 -227t240.5 -150.5t309 -54.5h1223zM1053 285h-183q-96 0 -176 31.5t-137 89t-88 137.5t-31 176t31 175t88 136t137 88t176 31h183 v-864z" />
<glyph glyph-name="oe" unicode="&#x153;" horiz-adv-x="2115" d="M1090 170q72 -92 181 -143.5t249 -51.5q150 0 260 54.5t188 150.5l-178 158q-66 -59 -127 -86t-139 -27q-104 0 -174 54.5t-95 160.5h764q2 23 3 40.5t1 39.5q0 117 -31.5 225.5t-97 191.5t-164 132t-233.5 49q-129 0 -231.5 -52t-169.5 -140q-76 90 -183.5 141 t-240.5 51q-123 0 -229.5 -45t-185.5 -123t-125 -182t-46 -223t45 -223.5t124 -181.5t183.5 -121t220.5 -44q133 0 244 52.5t187 142.5zM1251 635q18 106 79 169.5t159 63.5t157.5 -64.5t73.5 -168.5h-469zM946 545q0 -61 -18.5 -115.5t-54 -96.5t-87 -65.5t-114.5 -23.5 q-61 0 -112.5 24.5t-88.5 65.5t-57.5 97t-20.5 118q0 61 18.5 115.5t54.5 96.5t86 65.5t116 23.5q61 0 112 -24.5t88 -65.5t57.5 -97.5t20.5 -117.5z" />
<glyph glyph-name="Scaron" unicode="&#x160;" horiz-adv-x="1310" d="M1208 424v4q0 94 -29.5 161.5t-88 118t-143.5 86t-193 64.5q-92 25 -152.5 43.5t-95.5 39t-48.5 46t-13.5 60.5v4q0 53 46.5 89t138.5 36t184 -38t188 -104l164 238q-111 88 -242.5 135t-289.5 47q-111 0 -203 -30.5t-158.5 -88t-103.5 -136.5t-37 -177v-4 q0 -106 34 -178t95.5 -120t149.5 -81t196 -59q90 -23 146.5 -43.5t88 -41t43 -44t11.5 -54.5v-4q0 -63 -54.5 -99t-152.5 -36q-123 0 -226.5 47t-201.5 127l-186 -223q129 -117 286.5 -173t321.5 -56q117 0 213 29.5t165.5 86t108.5 139.5t39 189zM651 1733l-162 135h-239 l252 -321h294l252 321h-235z" />
<glyph glyph-name="scaron" unicode="&#x161;" horiz-adv-x="1028" d="M944 334v4q0 76 -30.5 129t-78 90t-106.5 62.5t-117 44.5q-45 14 -85 28.5t-70.5 29.5t-49 32.5t-18.5 40.5v4q0 33 28.5 54t86.5 21q59 0 137 -27.5t160 -74.5l119 215q-90 59 -198 93t-212 34q-84 0 -156.5 -22.5t-127 -67.5t-86 -109.5t-31.5 -148.5v-4 q0 -80 29.5 -135.5t76.5 -93t105.5 -61t115.5 -40.5l86 -26q41 -12 73 -25.5t50.5 -32t18.5 -43.5v-4q0 -37 -32 -59.5t-100 -22.5q-78 0 -167 33t-179 98l-133 -205q111 -86 233 -125.5t238 -39.5q88 0 165 21.5t134.5 64.5t89 109.5t31.5 158.5zM524 1405l-162 135h-239 l252 -321h294l252 321h-235z" />
<glyph glyph-name="Ydieresis" unicode="&#x178;" horiz-adv-x="1466" d="M1442 1434h-359l-348 -576l-342 576h-368l550 -869v-565h316v571zM1102 1547v276h-299v-276h299zM663 1547v276h-299v-276h299z" />
<glyph glyph-name="Zcaron" unicode="&#x17d;" horiz-adv-x="1449" d="M1323 0v276h-788l788 918v240h-1169v-277h764l-789 -917v-240h1194zM733 1733l-162 135h-239l252 -321h294l252 321h-235z" />
<glyph glyph-name="zcaron" unicode="&#x17e;" horiz-adv-x="1153" d="M1057 0v252h-570l570 627v219h-936v-252h549l-568 -627v-219h955zM594 1405l-162 135h-239l252 -321h294l252 321h-235z" />
<glyph glyph-name="florin" unicode="&#x192;" horiz-adv-x="1097" d="M1024 1161v258q-78 25 -203 25q-184 0 -271 -88t-116 -244l-28 -151h-183v-256h137l-57 -334q-12 -68 -45 -96.5t-98 -28.5q-37 0 -76 6v-252q29 -6 55.5 -8t65.5 -2q88 0 155.5 17.5t116.5 57t80 103t47 154.5l68 383h280v256h-235l14 81q12 72 49 106t105 34 q33 0 67.5 -5.5t71.5 -15.5z" />
<glyph glyph-name="circumflex" unicode="&#x2c6;" d="M510 1354l162 -135h239l-252 321h-294l-252 -321h235z" />
<glyph glyph-name="caron" unicode="&#x2c7;" d="M514 1405l-162 135h-239l252 -321h294l252 321h-235z" />
<glyph glyph-name="breve" unicode="&#x2d8;" d="M897 1540h-209q-18 -55 -58 -89t-118 -34t-118 34t-58 89h-209q14 -156 117.5 -241t267.5 -85t267.5 85t117.5 241z" />
<glyph glyph-name="dotaccent" unicode="&#x2d9;" d="M666 1219v276h-308v-276h308z" />
<glyph glyph-name="ring" unicode="&#x2da;" d="M760 1454q0 49 -20.5 93t-54.5 76t-79 51.5t-94 19.5t-94 -19.5t-79 -51.5t-54.5 -76t-20.5 -93t20.5 -93t54.5 -76t79 -51.5t94 -19.5t94 19.5t79 51.5t54.5 76t20.5 93zM639 1454q0 -53 -37 -90t-90 -37t-90 37t-37 90t37 90t90 37t90 -37t37 -90z" />
<glyph glyph-name="ogonek" unicode="&#x2db;" d="M596 20h-213q-14 -29 -23.5 -63.5t-9.5 -69.5q0 -123 106.5 -181t303.5 -42v137q-98 6 -137 41t-39 99q0 36 12 79z" />
<glyph glyph-name="tilde" unicode="&#x2dc;" d="M934 1501l-166 51q-23 -49 -46.5 -74.5t-70.5 -25.5q-29 0 -61 12l-72 28q-39 15 -83 27.5t-91 12.5q-53 0 -93 -20.5t-69.5 -57.5t-51 -89t-40.5 -116l166 -51q23 49 46.5 74.5t70.5 25.5q27 0 60 -12l73 -28q39 -15 83 -27t91 -12q106 0 162.5 76.5t91.5 205.5z" />
<glyph glyph-name="hungarumlaut" unicode="&#x2dd;" d="M700 1219l267 245l-262 117l-232 -362h227zM301 1219l262 245l-262 117l-227 -362h227z" />
<glyph glyph-name="Omega" unicode="&#x3a9;" horiz-adv-x="1564" d="M1282 1085v43q0 119 113 119q41 0 73.5 -7t67.5 -19v258q-43 14 -95 22t-126 8q-166 0 -253 -85t-87 -267v-70h-129v-256h129v-831h311v831h248v254h-252zM500 1085v43q0 119 112 119q41 0 74 -7t68 -19v258q-43 14 -95.5 22t-126.5 8q-166 0 -252.5 -85t-86.5 -267v-70 h-130v-256h130v-831h311v831h248v254h-252z" />
<glyph glyph-name="pi" unicode="&#x3c0;" horiz-adv-x="1699" d="M1591 719q0 152 -57 287t-156.5 235t-234.5 158.5t-291 58.5t-292 -59.5t-236.5 -160.5t-157.5 -236.5t-57 -286.5q0 -152 57 -287t156.5 -235.5t234.5 -159t291 -58.5t292 59.5t236.5 161t157.5 236.5t57 287zM1505 719q0 -137 -50 -257t-138 -210t-208 -142.5 t-261 -52.5q-139 0 -259 51.5t-208 140.5t-137 209t-49 257t50 257t138 210t208 142t261 52q139 0 259 -51t207 -140t137 -209t50 -257zM1204 850q0 123 -81 198.5t-222 75.5h-323v-788h176v237h131q66 0 124 17.5t101 52.5t68.5 87t25.5 120zM1026 848q0 -53 -36 -87 t-101 -34h-135v242h131q66 0 103.5 -31t37.5 -90z" />
<glyph glyph-name="endash" unicode="&#x2013;" horiz-adv-x="1081" d="M979 489v291h-877v-291h877z" />
<glyph glyph-name="emdash" unicode="&#x2014;" horiz-adv-x="1839" d="M1737 489v291h-1635v-291h1635z" />
<glyph glyph-name="quoteleft" unicode="&#x2018;" horiz-adv-x="585" d="M522 1315l-26 129q-182 -4 -280.5 -92t-98.5 -291v-277h332v328h-127q-17 180 200 203z" />
<glyph glyph-name="quoteright" unicode="&#x2019;" horiz-adv-x="585" d="M63 903l27 -129q182 2 280.5 91t98.5 292v277h-332v-328h127q16 -180 -201 -203z" />
<glyph glyph-name="quotesinglbase" unicode="&#x201a;" horiz-adv-x="585" d="M53 -203l27 -129q182 2 280.5 91t98.5 292v277h-332v-328h127q16 -180 -201 -203z" />
<glyph glyph-name="quotedblleft" unicode="&#x201c;" horiz-adv-x="1105" d="M1042 1315l-26 129q-182 -4 -280.5 -92t-98.5 -291v-277h332v328h-127q-17 180 200 203zM522 1315l-26 129q-182 -4 -280.5 -92t-98.5 -291v-277h332v328h-127q-17 180 200 203z" />
<glyph glyph-name="quotedblright" unicode="&#x201d;" horiz-adv-x="1105" d="M584 903l26 -129q182 2 280.5 91t98.5 292v277h-332v-328h127q17 -180 -200 -203zM63 903l27 -129q182 2 280.5 91t98.5 292v277h-332v-328h127q16 -180 -201 -203z" />
<glyph glyph-name="quotedblbase" unicode="&#x201e;" horiz-adv-x="1105" d="M573 -203l27 -129q182 2 280.5 91t98.5 292v277h-332v-328h127q16 -180 -201 -203zM53 -203l27 -129q182 2 280.5 91t98.5 292v277h-332v-328h127q16 -180 -201 -203z" />
<glyph glyph-name="dagger" unicode="&#x2020;" horiz-adv-x="839" d="M485 1040l246 -20v170l-244 -21l27 265h-188l26 -265l-243 21v-170l245 20l-20 -553h172z" />
<glyph glyph-name="daggerdbl" unicode="&#x2021;" horiz-adv-x="880" d="M752 244v170l-244 -21l18 324l-18 323l244 -20v170l-244 -21l27 265h-189l27 -265l-244 21v-170l244 20l-19 -323l19 -324l-244 21v-170l244 20l-27 -264h189l-27 264z" />
<glyph glyph-name="bullet" unicode="&#x2022;" d="M817 721q0 63 -24.5 118.5t-65.5 96.5t-96.5 65.5t-118.5 24.5t-118.5 -24.5t-97.5 -65.5t-65.5 -96.5t-23.5 -118.5t23.5 -118.5t65.5 -97.5t97.5 -65.5t118.5 -23.5t118.5 23.5t96.5 65.5t65.5 97.5t24.5 118.5z" />
<glyph glyph-name="ellipsis" unicode="&#x2026;" horiz-adv-x="1720" d="M1593 0v319h-323v-319h323zM1022 0v319h-324v-319h324zM451 0v319h-324v-319h324z" />
<glyph glyph-name="perthousand" unicode="&#x2030;" horiz-adv-x="2539" d="M788 1085q0 76 -24.5 142.5t-70.5 116t-109.5 78t-141.5 28.5t-142 -28.5t-110.5 -79t-72 -118t-25.5 -143.5t24.5 -142.5t70.5 -115.5t109.5 -77.5t141.5 -28.5t142.5 28.5t110.5 78.5t71.5 116.5t25.5 144.5zM1282 1434l-1046 -1434h243l1047 1434h-244zM2447 352 q0 76 -24.5 142.5t-70.5 115.5t-109.5 78t-141.5 29t-142.5 -29t-110.5 -79t-71.5 -117.5t-25.5 -143.5t24.5 -142.5t70.5 -115.5t109.5 -77.5t141.5 -28.5t142.5 28.5t110.5 78.5t71.5 116.5t25.5 144.5zM1669 352q0 76 -24.5 142.5t-70.5 115.5t-109.5 78t-141.5 29 t-142.5 -29t-110.5 -79t-71.5 -117.5t-25.5 -143.5t24.5 -142.5t70.5 -115.5t109.5 -77.5t141.5 -28.5t142.5 28.5t110.5 78.5t71.5 116.5t25.5 144.5zM573 1081q0 -72 -32.5 -125t-98.5 -53q-61 0 -98 54.5t-37 127.5q0 72 33 125.5t98 53.5q61 0 98 -54.5t37 -128.5z M2232 348q0 -72 -32.5 -125t-98.5 -53q-61 0 -98 54.5t-37 127.5q0 72 33 125t98 53q61 0 98 -54t37 -128zM1454 348q0 -72 -32.5 -125t-98.5 -53q-61 0 -98 54.5t-37 127.5q0 72 32.5 125t98.5 53q61 0 98 -54t37 -128z" />
<glyph glyph-name="guilsinglleft" unicode="&#x2039;" horiz-adv-x="763" d="M428 1016l-344 -459v-16l344 -459l238 119l-267 350l267 350z" />
<glyph glyph-name="guilsinglright" unicode="&#x203a;" horiz-adv-x="763" d="M336 82l344 459v16l-344 459l-238 -119l267 -350l-267 -350z" />
<glyph glyph-name="trademark" unicode="&#x2122;" horiz-adv-x="1413" d="M1202 1229v-426h135v631h-147l-166 -267l-166 267h-151v-631h135v426l174 -277h12zM385 1307h188v127h-520v-127h189v-504h143v504z" />
<glyph glyph-name="uni2215" unicode="&#x2215;" horiz-adv-x="983" d="M809 1552l-954 -1753h274l954 1753h-274z" />
<glyph glyph-name="radical" unicode="&#x221a;" horiz-adv-x="2183" d="M1282 1085v43q0 119 113 119q41 0 73.5 -7t67.5 -19v258q-43 14 -95 22t-126 8q-166 0 -253 -85t-87 -267v-70h-129v-256h129v-831h311v831h248v254h-252zM500 1085v43q0 119 112 119q41 0 74 -7t68 -19v258q-43 14 -95.5 22t-126.5 8q-166 0 -252.5 -85t-86.5 -267v-70 h-130v-256h130v-831h311v831h248v254h-252zM2030 0v1495h-312v-1495h312z" />
<glyph glyph-name="approxequal" unicode="&#x2248;" horiz-adv-x="2183" d="M2038 1219v276h-328v-276h328zM1282 1085v43q0 119 113 119q41 0 73.5 -7t67.5 -19v258q-43 14 -95 22t-126 8q-166 0 -253 -85t-87 -267v-70h-129v-256h129v-831h311v831h248v254h-252zM500 1085v43q0 119 112 119q41 0 74 -7t68 -19v258q-43 14 -95.5 22t-126.5 8 q-166 0 -252.5 -85t-86.5 -267v-70h-130v-256h130v-831h311v831h248v254h-252zM2030 0v1098h-312v-1098h312z" />
<glyph glyph-name="uniF8FF" unicode="&#xf8ff;" horiz-adv-x="1980" d="M1778 0v1536h-1571v-1536h1571zM1759 -213l-12 70h-2l-27 -54l-26 54h-2l-13 -70h13l6 41l20 -43h4l21 43l6 -41h12zM1651 -178q0 14 -9.5 24.5t-23.5 10.5q-16 0 -26.5 -10.5t-10.5 -26.5q0 -14 9 -24.5t26 -10.5q16 0 25.5 10.5t9.5 26.5zM1552 -197q-12 -8 -20 -8 q-27 0 -27 27q0 10 7.5 17t17.5 7q12 0 18 -6l4 10q-10 6 -22 7q-16 0 -26.5 -10.5t-10.5 -26.5q0 -35 37 -35q14 0 20 6zM1438 -145h-15l-18 -29l-23 31l-12 -2l29 -39v-29h12v29zM1343 -213v68h-12v-27h-33v27h-12v-68h12v31h33v-31h12zM1253 -168q0 10 -9 18.5t-38 4.5 v-68h13v20q34 0 34 25zM1180 -213l-33 70h-4l-31 -70h12l6 16h29l8 -16h13zM1094 -213l-21 27q14 6 14 20q0 10 -9 17.5t-38 3.5v-68h13v23h10l16 -23h15zM1006 -207v31h-31v-10h18v-15q-8 -4 -12 -4q-27 0 -27 25q0 27 25 26q14 0 22 -8l5 10q-12 8 -25 9 q-16 0 -27.5 -10.5t-11.5 -26.5t10.5 -25.5t26.5 -9.5q15 0 27 8zM915 -178q0 14 -9 24.5t-23 10.5q-16 0 -26.5 -10.5t-10.5 -26.5q0 -14 9 -24.5t26 -10.5q16 0 25 10.5t9 26.5zM819 -168q0 10 -9 18.5t-38 4.5v-68h12v20q35 0 35 25zM745 -145h-14l-18 -29l-23 31l-12 -2 l29 -39v-29h12v29zM662 -145h-62v-11h25v-57h12v57h25v11zM547 -145h-12l-15 -45l-20 47h-2l-21 -47l-14 47l-12 -2l24 -70h2l21 47l22 -47h2zM432 -145h-12l-14 -45l-21 47h-2l-21 -47l-14 47l-12 -2l24 -70h2l21 47l23 -47h2zM317 -145h-12l-14 -45l-21 47h-2l-20 -47 l-15 47l-12 -2l25 -70h2l20 47l23 -47h2zM1466 -207q0 8 -8 8t-8 -8t8 -8t8 8zM582 -207q0 8 -9 8q-8 0 -8 -8t8 -8q9 0 9 8zM1145 1405h-4l-5 9q-5 9 -16 9q-6 0 -6 -6v-47q0 -10 4 -10h6v-4h-34v4h4q6 0 6 10v47q0 6 -6 6q-10 0 -16 -9l-5 -9h-4l1 9q1 9 1 16q6 -2 37 -3 q31 0 35 3q2 -6 2 -17v-8zM1032 1356h-37v4h4q6 0 7 10v21h-35v-21q0 -8 5 -9l5 -1v-4h-35v4l5 1q5 1 5 9v43q0 10 -6 10h-4v4h35v-2v-2h-6q-4 0 -4 -10v-18h35v18q0 10 -7 10h-4v2v2h37v-4h-6q-6 0 -6 -10v-43q0 -10 6 -10h6v-4zM899 1360v-4h-61l-4 22l4 2l5 -9 q5 -9 15 -9h8q8 0 8 6v23h-8q-10 0 -11 -7l-1 -6h-4v27h4l1 -5q1 -5 11 -5h8v20q0 6 -8 6h-8q-10 0 -14 -8l-4 -8l-4 2l4 20h59v-4h-6q-4 0 -4 -10v-43q0 -10 4 -10h6zM1694 1266h-1403v12h1403v-12zM1425 1106q0 -25 -16 -35t-31 -10q-29 0 -52 22.5t-23 55.5q0 25 16 35 t31 10q29 0 52 -23.5t23 -54.5zM1206 1100q0 -16 -12 -27.5t-39 -11.5q-33 0 -33 26q0 20 19 21q14 0 14 -10t-8 -11q-4 0 -6 2.5t-4 2.5q-6 0 -7 -7q0 -18 25 -18t25 29q0 20 -13 30q-10 -10 -22 -10q-16 0 -17 12q0 16 33 13q4 4 4 12q0 25 -20 25q-14 0 -15 -11 q0 -4 3.5 -5t3.5 -7t-9 -6q-10 0 -10 12q0 23 27 23q23 0 33 -10.5t10 -20.5q0 -12 -10 -18q28 -10 28 -35zM604 1100q0 -16 -12 -27.5t-39 -11.5q-33 0 -33 26q0 20 19 21q14 0 14 -10t-8 -11q-4 0 -6 2.5t-4 2.5q-6 0 -7 -7q0 -18 25 -18t25 29q0 20 -13 30 q-10 -10 -22 -10q-16 0 -17 12q0 16 33 13q4 4 4 12q0 25 -20 25q-14 0 -15 -11q0 -4 3.5 -5t3.5 -7t-9 -6q-10 0 -10 12q0 23 27 23q23 0 33 -10.5t10 -20.5q0 -12 -11 -18q29 -10 29 -35zM1679 1069l2 -6h-59l-2 6l9 1q9 1 5 15l-6 33h-49l6 -33q4 -14 12 -15l9 -1l2 -6 h-60l-2 6l9 1q9 1 6 15l-15 72q-4 14 -12 15l-8 2l-2 6h59l2 -6l-9 -2q-9 -1 -5 -15l6 -31h49l-6 31q-4 14 -11 15l-7 2l-3 6h58l2 -6l-9 -2q-9 -1 -5 -15l14 -72q4 -14 12 -15zM1020 1063h-59l-3 6l10 1q9 1 5 15l-6 35h-9q-14 0 -15 -11l-1 -11h-6l-10 47h6l5 -9 q5 -9 19 -10h9l-7 33q-2 12 -12 12h-8q-23 0 -25 -13l-2 -13h-8l1 14q1 14 -1 21h92l2 -6l-9 -2q-9 -1 -5 -15l14 -72q4 -14 13 -15l8 -1zM414 1069l2 -6h-60l-2 6l10 1q9 1 5 15l-7 31q-8 0 -10 -6l-24 -47h-39l-2 6l10 1q10 1 18 15l19 33q-16 2 -27.5 10.5t-11.5 20.5 q0 31 41 31h55l2 -6l-9 -2q-9 -1 -5 -15l14 -72q4 -14 13 -15zM819 1067q0 -6 -8 -6q-18 0 -25 14q-16 0 -20 -13t-31 -13q-10 0 -20 7t-10 17q0 14 10 14t10 -10q0 -4 -2 -5t-2 -5q0 -8 10 -8t17.5 13t29.5 13q-12 12 -17 27.5t-7 30t-5.5 25t-13.5 10.5t-10 -13 q0 -12 -8 -12q-10 0 -10 10q0 6 8 13.5t18 7.5q25 0 34 -13.5t12 -31t4 -32.5t10 -22q14 -2 20 -8t6 -10zM1694 973h-1403v12h1403v-12zM1694 774h-74v57h-23v-133h29v-67h-166v67h29v133h-23v-57h-73v127h301v-127zM1327 831h-29l-75 -92v-41h30v-67h-166v67h29v39l-76 94 h-24v70h127v-70h-21l31 -47l31 47h-23v70h166v-70zM938 631h-166v67h31v39h-62q-45 0 -70.5 23.5t-25.5 58.5t25.5 58.5t70.5 23.5h197v-70h-29v-133h29v-67zM580 631h-289v125h84v-58h67v43h-49v50h49v40h-67v-57h-84v127h289v-70h-29v-133h29v-67zM1694 555h-1403v12h1403 v-12zM1491 393q0 -25 -16.5 -35t-30.5 -10q-29 0 -52.5 22.5t-23.5 55.5q0 25 16.5 35t30.5 10q29 0 52.5 -23.5t23.5 -54.5zM416 444l-4 -4l-10 10q-5 5 -15 5q-18 0 -18 -27q0 -16 10 -51q4 -16 12 -18l8 -1l2 -8h-57l-2 8l9 2q9 2 3 29q-6 25 -17 46.5t-32 21.5 q-16 0 -16 -13l-6 2q0 12 7 18.5t17 6.5q16 0 26.5 -13.5t16.5 -33.5q-2 47 29 47q16 0 23.5 -8.5t13.5 -18.5zM1686 350h-60l-2 6l9 1q9 1 5 16l-6 35h-8q-14 0 -15 -12l-1 -11h-6l-11 47h6l6 -9q5 -9 19 -9h8l-6 32q-2 12 -12 13h-8q-23 0 -25 -14l-2 -13h-8l1 14 q1 14 -1 21h92l2 -6l-9 -1q-9 -1 -5 -16l14 -71q4 -14 12 -16l8 -1zM1272 461l-10 -1q-10 -1 -7 -18l11 -45q4 -16 0 -32.5t-39 -16.5q-29 0 -41 19.5t-17 35.5l-8 39q-4 16 -13 18l-9 1l-2 6h49v-6l-9 -1q-9 -1 -6 -18l9 -39q4 -18 14 -31.5t27 -13.5q23 0 24.5 10.5 t-2.5 30.5l-10 43q-4 16 -12 18l-9 1l-2 6h60zM1069 356l2 -6h-43l-2 6l8 2q8 2 4 19l-12 61l-61 -90l-7 2l-16 92q-4 14 -11 17l-7 2l-2 6h43l2 -6l-10 -2q-9 -2 -5 -17l11 -61l59 86h29l2 -6l-11 -1q-10 -1 -6 -18l15 -65q4 -16 11 -19zM848 350h-66q-27 0 -49 19.5 t-22 52.5q0 23 16 34t35 11h61l2 -6q-23 -2 -16 -21l16 -63q4 -16 13 -18l8 -1zM627 356l2 -6h-60l-2 6l10 1q9 1 5 16l-7 30q-8 0 -10 -6l-24 -47h-39l-2 6l10 1q10 1 18 16l19 33q-16 2 -27.5 10t-11.5 20q0 31 41 31h55l2 -6l-9 -1q-9 -1 -5 -16l14 -71q4 -14 12 -16z M1694 260h-1403v12h1403v-12zM1421 94h-28v4l5 2q5 2 5 9v41l-51 -58h-6v58q0 8 -7 10l-6 2v4h31v-4l-6 -2q-6 -2 -6 -10v-37l49 53h20v-4l-6 -4q-6 -4 -6 -8v-41q0 -6 6 -9l6 -2v-4zM1296 98v-4h-61l-4 23l4 2l5 -9q5 -9 15 -10h9q8 0 8 6v23h-8q-10 0 -12 -6l-1 -6h-4v26 h4l1 -5q1 -5 12 -5h8v21q0 6 -8 6h-9q-10 0 -14 -8l-4 -9l-4 2l4 21h59v-4h-6q-4 0 -4 -10v-43q0 -10 4 -11h6zM1194 166v-4l-5 -1q-5 -1 -9 -11l-25 -56h-2l-18 33l-17 -33h-2h-2l-27 56q-4 8 -8 10l-4 2v4h27v-4l-4 -2q-4 -2 0 -10l16 -37l14 26l-6 11q-6 10 -10 11l-4 1 l-2 4h53v-4l-4 -3q-4 -3 -8 -9l-8 -17l10 -20l18 39q4 6 0 8l-4 2v4h31zM983 162l-5 -1q-5 -1 -9 -9l-17 -25v-16q0 -10 5 -12l6 -1v-4h-35v4l5 1q5 1 5 12v16l-16 25q-4 8 -11 9l-6 1v4h31v-4l-5 -1q-5 -1 -1 -9l12 -19l12 19q4 8 1 9l-3 1v4h31v-4zM870 131 q0 -16 -10 -27.5t-31 -11.5q-20 0 -30.5 11.5t-10.5 27.5t10.5 26.5t30.5 10.5t30.5 -10.5t10.5 -26.5zM745 94h-34v4l5 1q5 1 5 10v18q-8 0 -14 -8l-15 -25h-22v4l5 1q5 1 11 10l14 20q-18 8 -18 18q0 18 27 19h36v-4l-5 -1q-5 -1 -5 -11v-41q0 -8 5 -10l5 -1v-4zM633 94 h-37v4l6 1q6 1 6 12v18q-4 0 -8 -4l-16 -16q-6 -8 -1 -10l5 -1v-4h-35v4l5 3q5 3 9 8l27 26l-21 19q-4 4 -10 6l-6 2v4h29v-4l-3 -2q-3 -2 1 -6l16 -17q4 -4 8 -4v19q0 8 -6 9l-6 1v4h37v-4l-6 -1q-6 -1 -6 -9v-41q0 -8 6 -11l6 -2v-4zM1241 -170q0 -12 -22 -12v26 q22 2 22 -14zM1075 -168q0 -14 -22 -12v24q22 4 22 -12zM807 -170q0 -12 -23 -12v26q23 2 23 -14zM1155 -188h-20l10 24zM1638 -180q0 -25 -22 -25q-23 0 -23 27q0 25 23 24q22 1 22 -26zM903 -180q0 -25 -22 -25q-23 0 -23 27q0 25 23 24q22 1 22 -26zM360 1122l-6 39 q-2 10 -18 10t-17 -18q0 -10 7.5 -20.5t23.5 -10.5h10zM1159 1133q-4 2 -14 2q-8 0 -8 -7q0 -4 8 -4q8 1 14 9zM557 1133q-4 2 -14 2q-8 0 -8 -7q0 -4 8 -4q8 1 14 9zM1401 1096q0 33 -16.5 56.5t-34.5 23.5q-23 0 -23 -29q0 -31 16.5 -54.5t34.5 -23.5q23 0 23 27zM803 786 v45h-23q-27 0 -26 -22q0 -23 26 -23h23zM573 410l-6 39q-2 10 -18 10t-17 -19q0 -10 7.5 -20t23.5 -10h10zM1466 383q0 33 -16 56.5t-35 23.5q-23 0 -22 -29q0 -31 16 -54.5t35 -23.5q22 0 22 27zM805 373l-19 71q-4 10 -5 11.5t-7 3.5h-12q-29 0 -29 -35q0 -25 15.5 -45.5 t37.5 -20.5h11q8 1 8 15zM1133 162q-10 0 0 -19q8 19 0 19zM721 131v21q0 8 -8 8q-14 0 -15 -13q0 -16 17 -16h6zM854 131q0 33 -25 33t-24 -33q0 -14 6 -24.5t18 -10.5q14 0 19.5 10.5t5.5 24.5z" />
<glyph glyph-name="uniFB01" unicode="&#xfb01;" horiz-adv-x="1400" d="M1255 1219v276h-327v-276h327zM500 1085v43q0 119 112 119q41 0 74 -7t68 -19v258q-43 14 -95.5 22t-126.5 8q-166 0 -252.5 -85t-86.5 -267v-70h-130v-256h130v-831h311v831h248v254h-252zM1247 0v1098h-311v-1098h311z" />
<glyph glyph-name="uniFB02" unicode="&#xfb02;" horiz-adv-x="1400" d="M500 1085v43q0 119 112 119q41 0 74 -7t68 -19v258q-43 14 -95.5 22t-126.5 8q-166 0 -252.5 -85t-86.5 -267v-70h-130v-256h130v-831h311v831h248v254h-252zM1247 0v1495h-311v-1495h311z" />
</font>
</defs>
</svg>
